<?xml version="1.0" encoding="utf-8" standalone="no"?>
<!DOCTYPE svg PUBLIC "-//W3C//DTD SVG 1.1//EN"
  "http://www.w3.org/Graphics/SVG/1.1/DTD/svg11.dtd">
<svg xmlns:xlink="http://www.w3.org/1999/xlink" width="326.16pt" height="267.84pt" viewBox="0 0 326.16 267.84" xmlns="http://www.w3.org/2000/svg" version="1.1">
 <metadata>
  <rdf:RDF xmlns:dc="http://purl.org/dc/elements/1.1/" xmlns:cc="http://creativecommons.org/ns#" xmlns:rdf="http://www.w3.org/1999/02/22-rdf-syntax-ns#">
   <cc:Work>
    <dc:type rdf:resource="http://purl.org/dc/dcmitype/StillImage"/>
    <dc:date>2023-04-18T15:58:07.290351</dc:date>
    <dc:format>image/svg+xml</dc:format>
    <dc:creator>
     <cc:Agent>
      <dc:title>Matplotlib v3.5.1, https://matplotlib.org/</dc:title>
     </cc:Agent>
    </dc:creator>
   </cc:Work>
  </rdf:RDF>
 </metadata>
 <defs>
  <style type="text/css">*{stroke-linejoin: round; stroke-linecap: butt}</style>
 </defs>
 <g id="figure_1">
  <g id="patch_1">
   <path d="M 0 267.84 
L 326.16 267.84 
L 326.16 0 
L 0 0 
z
" style="fill: #ffffff"/>
  </g>
  <g id="axes_1">
   <g id="patch_2">
    <path d="M 40.77 238.3776 
L 293.544 238.3776 
L 293.544 32.1408 
L 40.77 32.1408 
z
" style="fill: #ffffff"/>
   </g>
   <g id="PathCollection_1">
    <path d="M 167.157 236.2944 
L 167.157 234.2112 
L 167.157 232.128 
L 167.157 230.0448 
L 167.157 227.9616 
L 167.157 225.8784 
L 167.157 223.7952 
L 167.157 221.712 
L 167.157 219.6288 
L 167.157 217.5456 
L 167.157 215.4624 
L 167.157 213.3792 
L 167.157 211.296 
L 167.157 209.2128 
L 167.157 207.1296 
L 167.157 205.0464 
L 167.157 202.9632 
L 167.157 200.88 
L 167.157 198.7968 
L 167.157 196.7136 
L 167.157 194.6304 
L 167.157 192.5472 
L 167.157 190.464 
L 167.157 188.3808 
L 167.157 186.2976 
L 167.157 184.2144 
L 167.157 182.1312 
L 167.157 180.048 
L 167.157 177.9648 
L 167.157 175.8816 
L 167.157 173.7984 
L 167.157 171.7152 
L 167.157 169.632 
L 167.157 167.5488 
L 167.157 165.4656 
L 167.157 163.3824 
L 167.157 161.2992 
L 167.157 159.216 
L 167.157 157.1328 
L 167.157 155.0496 
L 167.157 152.9664 
L 167.157 150.8832 
L 167.157 148.8 
L 167.157 146.7168 
L 167.157 144.6336 
L 167.157 142.5504 
L 167.157 140.4672 
L 167.157 138.384 
L 167.157 136.3008 
L 167.157 134.2176 
L 167.157 132.1344 
L 167.157 130.0512 
L 167.157 127.968 
L 167.157 125.8848 
L 167.157 123.8016 
L 167.157 121.7184 
L 167.157 119.6352 
L 167.157 117.552 
L 167.157 115.4688 
L 167.157 113.3856 
L 167.157 111.3024 
L 167.157 109.2192 
L 167.157 107.136 
L 167.157 105.0528 
L 167.157 102.9696 
L 167.157 100.8864 
L 167.157 98.8032 
L 167.157 96.72 
L 167.157 94.6368 
L 167.157 92.5536 
L 167.157 90.4704 
L 167.157 88.3872 
L 167.157 86.304 
L 167.157 84.2208 
L 167.157 82.1376 
L 167.157 80.0544 
L 167.157 77.9712 
L 167.157 75.888 
L 167.157 73.8048 
L 167.157 71.7216 
L 167.157 69.6384 
L 167.157 67.5552 
L 167.157 65.472 
L 167.157 63.3888 
L 167.157 61.3056 
L 167.157 59.2224 
L 167.157 57.1392 
L 167.157 55.056 
L 167.157 52.9728 
L 167.157 50.8896 
L 167.157 48.8064 
L 167.157 46.7232 
L 167.157 44.64 
L 167.157 42.5568 
L 167.157 40.4736 
L 167.157 38.3904 
L 167.157 36.3072 
L 167.157 34.224 
L 167.157 32.1408 
L 168.433636 32.1408 
L 169.710273 32.1408 
L 170.986909 32.1408 
L 172.263545 32.1408 
L 173.540182 32.1408 
L 174.816818 32.1408 
L 176.093455 32.1408 
L 177.370091 32.1408 
L 178.646727 32.1408 
L 179.923364 32.1408 
L 181.2 32.1408 
L 182.476636 32.1408 
L 183.753273 32.1408 
L 185.029909 32.1408 
L 186.306545 32.1408 
L 187.583182 32.1408 
L 188.859818 32.1408 
L 190.136455 32.1408 
L 191.413091 32.1408 
L 192.689727 32.1408 
L 193.966364 32.1408 
L 195.243 32.1408 
L 196.519636 32.1408 
L 197.796273 32.1408 
L 199.072909 32.1408 
L 200.349545 32.1408 
L 201.626182 32.1408 
L 202.902818 32.1408 
L 204.179455 32.1408 
L 205.456091 32.1408 
L 206.732727 32.1408 
L 208.009364 32.1408 
L 209.286 32.1408 
L 210.562636 32.1408 
L 211.839273 32.1408 
L 213.115909 32.1408 
L 214.392545 32.1408 
L 215.669182 32.1408 
L 216.945818 32.1408 
L 218.222455 32.1408 
L 219.499091 32.1408 
L 220.775727 32.1408 
L 222.052364 32.1408 
L 223.329 32.1408 
L 224.605636 32.1408 
L 225.882273 32.1408 
L 227.158909 32.1408 
L 228.435545 32.1408 
L 229.712182 32.1408 
L 230.988818 32.1408 
L 232.265455 32.1408 
L 233.542091 32.1408 
L 234.818727 32.1408 
L 236.095364 32.1408 
L 237.372 32.1408 
L 238.648636 32.1408 
L 239.925273 32.1408 
L 241.201909 32.1408 
L 242.478545 32.1408 
L 243.755182 32.1408 
L 245.031818 32.1408 
L 246.308455 32.1408 
L 247.585091 32.1408 
L 248.861727 32.1408 
L 250.138364 32.1408 
L 251.415 32.1408 
L 252.691636 32.1408 
L 253.968273 32.1408 
L 255.244909 32.1408 
L 256.521545 32.1408 
L 257.798182 32.1408 
L 259.074818 32.1408 
L 260.351455 32.1408 
L 261.628091 32.1408 
L 262.904727 32.1408 
L 264.181364 32.1408 
L 265.458 32.1408 
L 266.734636 32.1408 
L 268.011273 32.1408 
L 269.287909 32.1408 
L 270.564545 32.1408 
L 271.841182 32.1408 
L 273.117818 32.1408 
L 274.394455 32.1408 
L 275.671091 32.1408 
L 276.947727 32.1408 
L 278.224364 32.1408 
L 279.501 32.1408 
L 280.777636 32.1408 
L 282.054273 32.1408 
L 283.330909 32.1408 
L 284.607545 32.1408 
L 285.884182 32.1408 
L 287.160818 32.1408 
L 288.437455 32.1408 
L 289.714091 32.1408 
L 290.990727 32.1408 
L 292.267364 32.1408 
L 293.544 32.1408 
L 293.544 34.224 
L 293.544 36.3072 
L 293.544 38.3904 
L 293.544 40.4736 
L 293.544 42.5568 
L 293.544 44.64 
L 293.544 46.7232 
L 293.544 48.8064 
L 293.544 50.8896 
L 293.544 52.9728 
L 293.544 55.056 
L 293.544 57.1392 
L 293.544 59.2224 
L 293.544 61.3056 
L 293.544 63.3888 
L 293.544 65.472 
L 293.544 67.5552 
L 293.544 69.6384 
L 293.544 71.7216 
L 293.544 73.8048 
L 293.544 75.888 
L 293.544 77.9712 
L 293.544 80.0544 
L 293.544 82.1376 
L 293.544 84.2208 
L 293.544 86.304 
L 293.544 88.3872 
L 293.544 90.4704 
L 293.544 92.5536 
L 293.544 94.6368 
L 293.544 96.72 
L 293.544 98.8032 
L 293.544 100.8864 
L 293.544 102.9696 
L 293.544 105.0528 
L 293.544 107.136 
L 293.544 109.2192 
L 293.544 111.3024 
L 293.544 113.3856 
L 293.544 115.4688 
L 293.544 117.552 
L 293.544 119.6352 
L 293.544 121.7184 
L 293.544 123.8016 
L 293.544 125.8848 
L 293.544 127.968 
L 293.544 130.0512 
L 293.544 132.1344 
L 293.544 134.2176 
L 293.544 136.3008 
L 293.544 138.384 
L 293.544 140.4672 
L 293.544 142.5504 
L 293.544 144.6336 
L 293.544 146.7168 
L 293.544 148.8 
L 293.544 150.8832 
L 293.544 152.9664 
L 293.544 155.0496 
L 293.544 157.1328 
L 293.544 159.216 
L 293.544 161.2992 
L 293.544 163.3824 
L 293.544 165.4656 
L 293.544 167.5488 
L 293.544 169.632 
L 293.544 171.7152 
L 293.544 173.7984 
L 293.544 175.8816 
L 293.544 177.9648 
L 293.544 180.048 
L 293.544 182.1312 
L 293.544 184.2144 
L 293.544 186.2976 
L 293.544 188.3808 
L 293.544 190.464 
L 293.544 192.5472 
L 293.544 194.6304 
L 293.544 196.7136 
L 293.544 198.7968 
L 293.544 200.88 
L 293.544 202.9632 
L 293.544 205.0464 
L 293.544 207.1296 
L 293.544 209.2128 
L 293.544 211.296 
L 293.544 213.3792 
L 293.544 215.4624 
L 293.544 217.5456 
L 293.544 219.6288 
L 293.544 221.712 
L 293.544 223.7952 
L 293.544 225.8784 
L 293.544 227.9616 
L 293.544 230.0448 
L 293.544 232.128 
L 293.544 234.2112 
L 293.544 236.2944 
L 293.544 238.3776 
L 292.267364 238.3776 
L 290.990727 238.3776 
L 289.714091 238.3776 
L 288.437455 238.3776 
L 287.160818 238.3776 
L 285.884182 238.3776 
L 284.607545 238.3776 
L 283.330909 238.3776 
L 282.054273 238.3776 
L 280.777636 238.3776 
L 279.501 238.3776 
L 278.224364 238.3776 
L 276.947727 238.3776 
L 275.671091 238.3776 
L 274.394455 238.3776 
L 273.117818 238.3776 
L 271.841182 238.3776 
L 270.564545 238.3776 
L 269.287909 238.3776 
L 268.011273 238.3776 
L 266.734636 238.3776 
L 265.458 238.3776 
L 264.181364 238.3776 
L 262.904727 238.3776 
L 261.628091 238.3776 
L 260.351455 238.3776 
L 259.074818 238.3776 
L 257.798182 238.3776 
L 256.521545 238.3776 
L 255.244909 238.3776 
L 253.968273 238.3776 
L 252.691636 238.3776 
L 251.415 238.3776 
L 250.138364 238.3776 
L 248.861727 238.3776 
L 247.585091 238.3776 
L 246.308455 238.3776 
L 245.031818 238.3776 
L 243.755182 238.3776 
L 242.478545 238.3776 
L 241.201909 238.3776 
L 239.925273 238.3776 
L 238.648636 238.3776 
L 237.372 238.3776 
L 236.095364 238.3776 
L 234.818727 238.3776 
L 233.542091 238.3776 
L 232.265455 238.3776 
L 230.988818 238.3776 
L 229.712182 238.3776 
L 228.435545 238.3776 
L 227.158909 238.3776 
L 225.882273 238.3776 
L 224.605636 238.3776 
L 223.329 238.3776 
L 222.052364 238.3776 
L 220.775727 238.3776 
L 219.499091 238.3776 
L 218.222455 238.3776 
L 216.945818 238.3776 
L 215.669182 238.3776 
L 214.392545 238.3776 
L 213.115909 238.3776 
L 211.839273 238.3776 
L 210.562636 238.3776 
L 209.286 238.3776 
L 208.009364 238.3776 
L 206.732727 238.3776 
L 205.456091 238.3776 
L 204.179455 238.3776 
L 202.902818 238.3776 
L 201.626182 238.3776 
L 200.349545 238.3776 
L 199.072909 238.3776 
L 197.796273 238.3776 
L 196.519636 238.3776 
L 195.243 238.3776 
L 193.966364 238.3776 
L 192.689727 238.3776 
L 191.413091 238.3776 
L 190.136455 238.3776 
L 188.859818 238.3776 
L 187.583182 238.3776 
L 186.306545 238.3776 
L 185.029909 238.3776 
L 183.753273 238.3776 
L 182.476636 238.3776 
L 181.2 238.3776 
L 179.923364 238.3776 
L 178.646727 238.3776 
L 177.370091 238.3776 
L 176.093455 238.3776 
L 174.816818 238.3776 
L 173.540182 238.3776 
L 172.263545 238.3776 
L 170.986909 238.3776 
L 169.710273 238.3776 
L 168.433636 238.3776 
L 167.157 238.3776 
z
" clip-path="url(#p3a98d54873)" style="fill: url(#h902e7c73e2); fill-opacity: 0.5"/>
   </g>
   <g id="PathCollection_2">
    <path d="M 38.747808 236.2944 
L 38.747808 234.2112 
L 38.747808 232.128 
L 38.747808 230.0448 
L 38.747808 227.9616 
L 38.747808 225.8784 
L 38.747808 223.7952 
L 38.747808 221.712 
L 38.747808 219.6288 
L 38.747808 217.5456 
L 38.747808 215.4624 
L 38.747808 213.3792 
L 38.747808 211.296 
L 38.747808 209.2128 
L 38.747808 207.1296 
L 38.747808 205.0464 
L 38.747808 202.9632 
L 38.747808 200.88 
L 38.747808 198.7968 
L 38.747808 196.7136 
L 38.747808 194.6304 
L 38.747808 192.5472 
L 38.747808 190.464 
L 38.747808 188.3808 
L 38.747808 186.2976 
L 38.747808 184.2144 
L 38.747808 182.1312 
L 38.747808 180.048 
L 38.747808 177.9648 
L 38.747808 175.8816 
L 38.747808 173.7984 
L 38.747808 171.7152 
L 38.747808 169.632 
L 38.747808 167.5488 
L 38.747808 165.4656 
L 38.747808 163.3824 
L 38.747808 161.2992 
L 38.747808 159.216 
L 38.747808 157.1328 
L 38.747808 155.0496 
L 38.747808 152.9664 
L 38.747808 150.8832 
L 38.747808 148.8 
L 38.747808 146.7168 
L 38.747808 144.6336 
L 38.747808 142.5504 
L 38.747808 140.4672 
L 38.747808 138.384 
L 38.747808 136.3008 
L 38.747808 134.2176 
L 38.747808 132.1344 
L 38.747808 130.0512 
L 38.747808 127.968 
L 38.747808 125.8848 
L 38.747808 123.8016 
L 38.747808 121.7184 
L 38.747808 119.6352 
L 38.747808 117.552 
L 38.747808 115.4688 
L 38.747808 113.3856 
L 38.747808 111.3024 
L 38.747808 109.2192 
L 38.747808 107.136 
L 38.747808 105.0528 
L 38.747808 102.9696 
L 38.747808 100.8864 
L 38.747808 98.8032 
L 38.747808 96.72 
L 38.747808 94.6368 
L 38.747808 92.5536 
L 38.747808 90.4704 
L 38.747808 88.3872 
L 38.747808 86.304 
L 38.747808 84.2208 
L 38.747808 82.1376 
L 38.747808 80.0544 
L 38.747808 77.9712 
L 38.747808 75.888 
L 38.747808 73.8048 
L 38.747808 71.7216 
L 38.747808 69.6384 
L 38.747808 67.5552 
L 38.747808 65.472 
L 38.747808 63.3888 
L 38.747808 61.3056 
L 38.747808 59.2224 
L 38.747808 57.1392 
L 38.747808 55.056 
L 38.747808 52.9728 
L 38.747808 50.8896 
L 38.747808 48.8064 
L 38.747808 46.7232 
L 38.747808 44.64 
L 38.747808 42.5568 
L 38.747808 40.4736 
L 38.747808 38.3904 
L 38.747808 36.3072 
L 38.747808 34.224 
L 38.747808 32.1408 
L 40.044871 32.1408 
L 41.341933 32.1408 
L 42.638996 32.1408 
L 43.936058 32.1408 
L 45.233121 32.1408 
L 46.530183 32.1408 
L 47.827246 32.1408 
L 49.124308 32.1408 
L 50.421371 32.1408 
L 51.718433 32.1408 
L 53.015496 32.1408 
L 54.312559 32.1408 
L 55.609621 32.1408 
L 56.906684 32.1408 
L 58.203746 32.1408 
L 59.500809 32.1408 
L 60.797871 32.1408 
L 62.094934 32.1408 
L 63.391996 32.1408 
L 64.689059 32.1408 
L 65.986121 32.1408 
L 67.283184 32.1408 
L 68.580247 32.1408 
L 69.877309 32.1408 
L 71.174372 32.1408 
L 72.471434 32.1408 
L 73.768497 32.1408 
L 75.065559 32.1408 
L 76.362622 32.1408 
L 77.659684 32.1408 
L 78.956747 32.1408 
L 80.253809 32.1408 
L 81.550872 32.1408 
L 82.847935 32.1408 
L 84.144997 32.1408 
L 85.44206 32.1408 
L 86.739122 32.1408 
L 88.036185 32.1408 
L 89.333247 32.1408 
L 90.63031 32.1408 
L 91.927372 32.1408 
L 93.224435 32.1408 
L 94.521497 32.1408 
L 95.81856 32.1408 
L 97.115623 32.1408 
L 98.412685 32.1408 
L 99.709748 32.1408 
L 101.00681 32.1408 
L 102.303873 32.1408 
L 103.600935 32.1408 
L 104.897998 32.1408 
L 106.19506 32.1408 
L 107.492123 32.1408 
L 108.789185 32.1408 
L 110.086248 32.1408 
L 111.383311 32.1408 
L 112.680373 32.1408 
L 113.977436 32.1408 
L 115.274498 32.1408 
L 116.571561 32.1408 
L 117.868623 32.1408 
L 119.165686 32.1408 
L 120.462748 32.1408 
L 121.759811 32.1408 
L 123.056873 32.1408 
L 124.353936 32.1408 
L 125.650999 32.1408 
L 126.948061 32.1408 
L 128.245124 32.1408 
L 129.542186 32.1408 
L 130.839249 32.1408 
L 132.136311 32.1408 
L 133.433374 32.1408 
L 134.730436 32.1408 
L 136.027499 32.1408 
L 137.324561 32.1408 
L 138.621624 32.1408 
L 139.918687 32.1408 
L 141.215749 32.1408 
L 142.512812 32.1408 
L 143.809874 32.1408 
L 145.106937 32.1408 
L 146.403999 32.1408 
L 147.701062 32.1408 
L 148.998124 32.1408 
L 150.295187 32.1408 
L 151.592249 32.1408 
L 152.889312 32.1408 
L 154.186375 32.1408 
L 155.483437 32.1408 
L 156.7805 32.1408 
L 158.077562 32.1408 
L 159.374625 32.1408 
L 160.671687 32.1408 
L 161.96875 32.1408 
L 163.265812 32.1408 
L 164.562875 32.1408 
L 165.859937 32.1408 
L 167.156998 32.1408 
L 167.156997 34.224 
L 167.156997 36.3072 
L 167.156996 38.3904 
L 167.156995 40.4736 
L 167.156994 42.5568 
L 167.156992 44.64 
L 167.15699 46.7232 
L 167.156987 48.8064 
L 167.156984 50.8896 
L 167.156979 52.9728 
L 167.156974 55.056 
L 167.156967 57.1392 
L 167.156959 59.2224 
L 167.156948 61.3056 
L 167.156934 63.3888 
L 167.156917 65.472 
L 167.156896 67.5552 
L 167.156868 69.6384 
L 167.156834 71.7216 
L 167.15679 73.8048 
L 167.156735 75.888 
L 167.156666 77.9712 
L 167.156578 80.0544 
L 167.156468 82.1376 
L 167.156328 84.2208 
L 167.156153 86.304 
L 167.155931 88.3872 
L 167.155651 90.4704 
L 167.155297 92.5536 
L 167.154851 94.6368 
L 167.154289 96.72 
L 167.153579 98.8032 
L 167.152683 100.8864 
L 167.151552 102.9696 
L 167.150126 105.0528 
L 167.148326 107.136 
L 167.146054 109.2192 
L 167.143188 111.3024 
L 167.139571 113.3856 
L 167.135007 115.4688 
L 167.129248 117.552 
L 167.121981 119.6352 
L 167.112811 121.7184 
L 167.10124 123.8016 
L 167.086639 125.8848 
L 167.068215 127.968 
L 167.044966 130.0512 
L 167.015629 132.1344 
L 166.97861 134.2176 
L 166.931898 136.3008 
L 166.872953 138.384 
L 166.798573 140.4672 
L 166.704717 142.5504 
L 166.586283 144.6336 
L 166.436837 146.7168 
L 166.248258 148.8 
L 166.010297 150.8832 
L 165.859937 152.046917 
L 165.528548 152.9664 
L 164.690969 155.0496 
L 164.562875 155.358391 
L 163.447392 157.1328 
L 163.265812 157.422215 
L 161.96875 158.970617 
L 161.706427 159.216 
L 160.671687 160.27575 
L 159.394607 161.2992 
L 159.374625 161.317072 
L 158.077562 162.360834 
L 156.7805 163.222952 
L 156.517841 163.3824 
L 155.483437 164.103409 
L 154.186375 164.900719 
L 153.15732 165.4656 
L 152.889312 165.635993 
L 151.592249 166.42067 
L 150.295187 167.12454 
L 149.453371 167.5488 
L 148.998124 167.816333 
L 147.701062 168.546674 
L 146.403999 169.214409 
L 145.542156 169.632 
L 145.106937 169.878615 
L 143.809874 170.591194 
L 142.512812 171.249403 
L 141.539181 171.7152 
L 141.215749 171.896324 
L 139.918687 172.609388 
L 138.621624 173.271609 
L 137.524224 173.7984 
L 137.324561 173.910564 
L 136.027499 174.63347 
L 134.730436 175.30655 
L 133.548529 175.8816 
L 133.433374 175.947103 
L 132.136311 176.684228 
L 130.839249 177.371125 
L 129.643289 177.9648 
L 129.542186 178.023388 
L 128.245124 178.776025 
L 126.948061 179.477219 
L 125.826233 180.048 
L 125.650999 180.151887 
L 124.353936 180.919269 
L 123.056873 181.633551 
L 122.105992 182.1312 
L 121.759811 182.341844 
L 120.462748 183.121743 
L 119.165686 183.846682 
L 118.484724 184.2144 
L 117.868623 184.600242 
L 116.571561 185.389329 
L 115.274498 186.121555 
L 114.959483 186.2976 
L 113.977436 186.932296 
L 112.680373 187.726358 
L 111.537798 188.3808 
L 111.383311 188.482921 
L 110.086248 189.341641 
L 108.789185 190.135705 
L 108.238383 190.464 
L 107.492123 190.975555 
L 106.19506 191.830274 
L 105.026178 192.5472 
L 104.897998 192.637386 
L 103.600935 193.554205 
L 102.303873 194.398317 
L 101.942681 194.6304 
L 101.00681 195.31725 
L 99.709748 196.217429 
L 98.963119 196.7136 
L 98.412685 197.130053 
L 97.115623 198.08583 
L 96.083657 198.7968 
L 95.81856 199.00399 
L 94.521497 200.013893 
L 93.312073 200.88 
L 93.224435 200.950915 
L 91.927372 202.012272 
L 90.653643 202.9632 
L 90.63031 202.982796 
L 89.333247 204.091513 
L 88.110353 205.0464 
L 88.036185 205.111226 
L 86.739122 206.261564 
L 85.680101 207.1296 
L 85.44206 207.34678 
L 84.144997 208.531137 
L 83.355957 209.2128 
L 82.847935 209.698239 
L 81.550872 210.906939 
L 81.125551 211.296 
L 80.253809 212.171642 
L 78.973361 213.3792 
L 78.956747 213.396337 
L 77.659684 214.769229 
L 76.971106 215.4624 
L 76.362622 216.126367 
L 75.065559 217.488289 
L 75.012564 217.5456 
L 73.768497 218.98883 
L 73.199101 219.6288 
L 72.471434 220.500994 
L 71.436795 221.712 
L 71.174372 222.037477 
L 69.877309 223.650709 
L 69.764246 223.7952 
L 68.580247 225.375292 
L 68.204919 225.8784 
L 67.283184 227.157853 
L 66.713174 227.9616 
L 65.986121 229.013427 
L 65.293007 230.0448 
L 64.689059 230.957412 
L 63.946256 232.128 
L 63.391996 233.004882 
L 62.672091 234.2112 
L 62.094934 235.169703 
L 61.466541 236.2944 
L 60.797871 237.463437 
L 60.322139 238.3776 
L 59.500809 238.3776 
L 58.203746 238.3776 
L 56.906684 238.3776 
L 55.609621 238.3776 
L 54.312559 238.3776 
L 53.015496 238.3776 
L 51.718433 238.3776 
L 50.421371 238.3776 
L 49.124308 238.3776 
L 47.827246 238.3776 
L 46.530183 238.3776 
L 45.233121 238.3776 
L 43.936058 238.3776 
L 42.638996 238.3776 
L 41.341933 238.3776 
L 40.044871 238.3776 
L 38.747808 238.3776 
z
" clip-path="url(#p3a98d54873)" style="fill: #b0c4de"/>
   </g>
   <g id="PathCollection_3">
    <path d="M 38.747808 159.216 
L 38.747808 157.1328 
L 38.747808 155.0496 
L 38.747808 152.9664 
L 38.747808 150.8832 
L 38.747808 148.8 
L 38.747808 146.7168 
L 38.747808 144.6336 
L 38.747808 142.5504 
L 38.747808 140.4672 
L 38.747808 138.384 
L 38.747808 136.3008 
L 38.747808 134.2176 
L 38.747808 132.1344 
L 38.747808 130.0512 
L 38.747808 127.968 
L 38.747808 125.8848 
L 38.747808 123.8016 
L 38.747808 121.7184 
L 38.747808 119.6352 
L 38.747808 117.552 
L 38.747808 115.4688 
L 38.747808 113.3856 
L 38.747808 111.3024 
L 38.747808 109.2192 
L 38.747808 107.136 
L 38.747808 105.0528 
L 38.747808 102.9696 
L 38.747808 100.8864 
L 38.747808 98.8032 
L 38.747808 96.72 
L 38.747808 94.6368 
L 38.747808 92.5536 
L 38.747808 90.4704 
L 38.747808 88.3872 
L 38.747808 86.304 
L 38.747808 84.2208 
L 38.747808 82.1376 
L 38.747808 80.0544 
L 38.747808 77.9712 
L 38.747808 75.888 
L 38.747808 73.8048 
L 38.747808 71.7216 
L 38.747808 69.6384 
L 38.747808 67.5552 
L 38.747808 65.472 
L 38.747808 63.3888 
L 38.747808 61.3056 
L 38.747808 59.2224 
L 38.747808 57.1392 
L 38.747808 55.056 
L 38.747808 52.9728 
L 38.747808 50.8896 
L 38.747808 48.8064 
L 38.747808 46.7232 
L 38.747808 44.64 
L 38.747808 42.5568 
L 38.747808 40.4736 
L 38.747808 38.3904 
L 38.747808 36.3072 
L 38.747808 34.224 
L 38.747808 32.1408 
L 40.044871 32.1408 
L 41.341933 32.1408 
L 42.638996 32.1408 
L 43.936058 32.1408 
L 45.233121 32.1408 
L 46.530183 32.1408 
L 47.827246 32.1408 
L 49.124308 32.1408 
L 50.421371 32.1408 
L 51.718433 32.1408 
L 53.015496 32.1408 
L 54.312559 32.1408 
L 55.609621 32.1408 
L 56.906684 32.1408 
L 58.203746 32.1408 
L 59.500809 32.1408 
L 60.797871 32.1408 
L 62.094934 32.1408 
L 63.391996 32.1408 
L 64.689059 32.1408 
L 65.986121 32.1408 
L 67.283184 32.1408 
L 68.580247 32.1408 
L 69.877309 32.1408 
L 71.174372 32.1408 
L 72.471434 32.1408 
L 73.768497 32.1408 
L 75.065559 32.1408 
L 76.362622 32.1408 
L 77.659684 32.1408 
L 78.956747 32.1408 
L 80.253809 32.1408 
L 81.550872 32.1408 
L 82.847935 32.1408 
L 84.144997 32.1408 
L 85.44206 32.1408 
L 86.739122 32.1408 
L 88.036185 32.1408 
L 89.333247 32.1408 
L 90.63031 32.1408 
L 91.927372 32.1408 
L 93.224435 32.1408 
L 94.521497 32.1408 
L 95.81856 32.1408 
L 97.115623 32.1408 
L 98.412685 32.1408 
L 99.709748 32.1408 
L 101.00681 32.1408 
L 102.303873 32.1408 
L 103.600935 32.1408 
L 104.897998 32.1408 
L 106.19506 32.1408 
L 107.492123 32.1408 
L 108.789185 32.1408 
L 110.086248 32.1408 
L 111.383311 32.1408 
L 112.680373 32.1408 
L 113.977436 32.1408 
L 115.274498 32.1408 
L 116.571561 32.1408 
L 117.868623 32.1408 
L 119.165686 32.1408 
L 120.462748 32.1408 
L 121.759811 32.1408 
L 123.056873 32.1408 
L 124.353936 32.1408 
L 125.650999 32.1408 
L 126.948061 32.1408 
L 128.245124 32.1408 
L 129.542186 32.1408 
L 130.839249 32.1408 
L 132.136311 32.1408 
L 133.433374 32.1408 
L 134.730436 32.1408 
L 136.027499 32.1408 
L 137.324561 32.1408 
L 138.621624 32.1408 
L 139.918687 32.1408 
L 141.215749 32.1408 
L 142.512812 32.1408 
L 143.809874 32.1408 
L 145.106937 32.1408 
L 146.403999 32.1408 
L 147.701062 32.1408 
L 148.998124 32.1408 
L 150.295187 32.1408 
L 151.592249 32.1408 
L 152.889312 32.1408 
L 154.186375 32.1408 
L 155.483437 32.1408 
L 156.7805 32.1408 
L 158.077562 32.1408 
L 159.374625 32.1408 
L 160.671687 32.1408 
L 161.96875 32.1408 
L 163.265812 32.1408 
L 164.562875 32.1408 
L 165.859937 32.1408 
L 167.156994 32.1408 
L 167.156992 34.224 
L 167.15699 36.3072 
L 167.156988 38.3904 
L 167.156984 40.4736 
L 167.15698 42.5568 
L 167.156975 44.64 
L 167.156969 46.7232 
L 167.15696 48.8064 
L 167.15695 50.8896 
L 167.156937 52.9728 
L 167.15692 55.056 
L 167.156899 57.1392 
L 167.156873 59.2224 
L 167.15684 61.3056 
L 167.156798 63.3888 
L 167.156745 65.472 
L 167.156678 67.5552 
L 167.156593 69.6384 
L 167.156487 71.7216 
L 167.156352 73.8048 
L 167.156183 75.888 
L 167.155969 77.9712 
L 167.155699 80.0544 
L 167.155358 82.1376 
L 167.154928 84.2208 
L 167.154385 86.304 
L 167.153701 88.3872 
L 167.152837 90.4704 
L 167.151747 92.5536 
L 167.150371 94.6368 
L 167.148635 96.72 
L 167.146445 98.8032 
L 167.143681 100.8864 
L 167.140193 102.9696 
L 167.135792 105.0528 
L 167.130238 107.136 
L 167.123231 109.2192 
L 167.114388 111.3024 
L 167.10323 113.3856 
L 167.08915 115.4688 
L 167.071383 117.552 
L 167.048963 119.6352 
L 167.020673 121.7184 
L 166.984975 123.8016 
L 166.939929 125.8848 
L 166.883087 127.968 
L 166.811362 130.0512 
L 166.720854 132.1344 
L 166.606646 134.2176 
L 166.462532 136.3008 
L 166.280681 138.384 
L 166.05121 140.4672 
L 165.859937 141.947567 
L 165.620544 142.5504 
L 164.730589 144.6336 
L 164.562875 145.011409 
L 163.307958 146.7168 
L 163.265812 146.775963 
L 161.96875 148.090357 
L 160.96355 148.8 
L 160.671687 149.033164 
L 159.374625 149.863846 
L 158.077562 150.507516 
L 157.15226 150.8832 
L 156.7805 151.061839 
L 155.483437 151.600772 
L 154.186375 152.055219 
L 152.889312 152.444894 
L 151.592249 152.783626 
L 150.80771 152.9664 
L 150.295187 153.111555 
L 148.998124 153.445125 
L 147.701062 153.74365 
L 146.403999 154.012709 
L 145.106937 154.256712 
L 143.809874 154.479196 
L 142.512812 154.683036 
L 141.215749 154.870598 
L 139.918687 155.043844 
L 139.873097 155.0496 
L 138.621624 155.244963 
L 137.324561 155.433363 
L 136.027499 155.609032 
L 134.730436 155.773256 
L 133.433374 155.927145 
L 132.136311 156.071662 
L 130.839249 156.207648 
L 129.542186 156.335843 
L 128.245124 156.456897 
L 126.948061 156.571388 
L 125.650999 156.679828 
L 124.353936 156.782674 
L 123.056873 156.880336 
L 121.759811 156.973182 
L 120.462748 157.061544 
L 119.366575 157.1328 
L 119.165686 157.149105 
L 117.868623 157.250389 
L 116.571561 157.347047 
L 115.274498 157.439363 
L 113.977436 157.527597 
L 112.680373 157.611985 
L 111.383311 157.692745 
L 110.086248 157.770076 
L 108.789185 157.844162 
L 107.492123 157.915173 
L 106.19506 157.983264 
L 104.897998 158.048581 
L 103.600935 158.111257 
L 102.303873 158.171417 
L 101.00681 158.229176 
L 99.709748 158.284641 
L 98.412685 158.337912 
L 97.115623 158.389082 
L 95.81856 158.438238 
L 94.521497 158.485461 
L 93.224435 158.530828 
L 91.927372 158.574408 
L 90.63031 158.616268 
L 89.333247 158.656471 
L 88.036185 158.695074 
L 86.739122 158.732133 
L 85.44206 158.767699 
L 84.144997 158.80182 
L 82.847935 158.834542 
L 81.550872 158.865906 
L 80.253809 158.895954 
L 78.956747 158.924722 
L 77.659684 158.952245 
L 76.362622 158.978558 
L 75.065559 159.003692 
L 73.768497 159.027675 
L 72.471434 159.050536 
L 71.174372 159.0723 
L 69.877309 159.092991 
L 68.580247 159.112633 
L 67.283184 159.131247 
L 65.986121 159.148853 
L 64.689059 159.165469 
L 63.391996 159.181113 
L 62.094934 159.195801 
L 60.797871 159.209548 
L 60.145636 159.216 
L 59.500809 159.224036 
L 58.203746 159.239061 
L 56.906684 159.252948 
L 55.609621 159.26571 
L 54.312559 159.277361 
L 53.015496 159.287912 
L 51.718433 159.297373 
L 50.421371 159.305753 
L 49.124308 159.313061 
L 47.827246 159.319303 
L 46.530183 159.324485 
L 45.233121 159.328613 
L 43.936058 159.33169 
L 42.638996 159.333719 
L 41.341933 159.334702 
L 40.044871 159.33464 
L 38.747808 159.333534 
z
" clip-path="url(#p3a98d54873)" style="fill: #f08080"/>
   </g>
   <g id="PathCollection_4">
    <path d="M 38.747808 146.7168 
L 38.747808 144.6336 
L 38.747808 142.5504 
L 38.747808 140.4672 
L 38.747808 138.384 
L 38.747808 136.3008 
L 38.747808 134.2176 
L 38.747808 132.1344 
L 38.747808 130.0512 
L 38.747808 127.968 
L 38.747808 125.8848 
L 38.747808 123.8016 
L 38.747808 121.7184 
L 38.747808 119.6352 
L 38.747808 117.552 
L 38.747808 115.4688 
L 38.747808 113.3856 
L 38.747808 111.3024 
L 38.747808 109.2192 
L 38.747808 107.136 
L 38.747808 105.0528 
L 38.747808 102.9696 
L 38.747808 100.8864 
L 38.747808 98.8032 
L 38.747808 96.72 
L 38.747808 94.6368 
L 38.747808 92.5536 
L 38.747808 90.4704 
L 38.747808 88.3872 
L 38.747808 86.304 
L 38.747808 84.2208 
L 38.747808 82.1376 
L 38.747808 80.0544 
L 38.747808 77.9712 
L 38.747808 75.888 
L 38.747808 73.8048 
L 38.747808 71.7216 
L 38.747808 69.6384 
L 38.747808 67.5552 
L 38.747808 65.472 
L 38.747808 63.3888 
L 38.747808 61.3056 
L 38.747808 59.2224 
L 38.747808 57.1392 
L 38.747808 55.056 
L 38.747808 52.9728 
L 38.747808 50.8896 
L 38.747808 48.8064 
L 38.747808 46.7232 
L 38.747808 44.64 
L 38.747808 42.5568 
L 38.747808 40.4736 
L 38.747808 38.3904 
L 38.747808 36.3072 
L 38.747808 34.224 
L 38.747808 32.1408 
L 40.044871 32.1408 
L 41.341933 32.1408 
L 42.638996 32.1408 
L 43.936058 32.1408 
L 45.233121 32.1408 
L 46.530183 32.1408 
L 47.827246 32.1408 
L 49.124308 32.1408 
L 50.421371 32.1408 
L 51.718433 32.1408 
L 53.015496 32.1408 
L 54.312559 32.1408 
L 55.609621 32.1408 
L 56.906684 32.1408 
L 58.203746 32.1408 
L 59.500809 32.1408 
L 60.797871 32.1408 
L 62.094934 32.1408 
L 63.391996 32.1408 
L 64.689059 32.1408 
L 65.986121 32.1408 
L 67.283184 32.1408 
L 68.580247 32.1408 
L 69.877309 32.1408 
L 71.174372 32.1408 
L 72.471434 32.1408 
L 73.768497 32.1408 
L 75.065559 32.1408 
L 76.362622 32.1408 
L 77.659684 32.1408 
L 78.956747 32.1408 
L 80.253809 32.1408 
L 81.550872 32.1408 
L 82.847935 32.1408 
L 84.144997 32.1408 
L 85.44206 32.1408 
L 86.739122 32.1408 
L 88.036185 32.1408 
L 89.333247 32.1408 
L 90.63031 32.1408 
L 91.927372 32.1408 
L 93.224435 32.1408 
L 94.521497 32.1408 
L 95.81856 32.1408 
L 97.115623 32.1408 
L 98.412685 32.1408 
L 99.709748 32.1408 
L 101.00681 32.1408 
L 102.303873 32.1408 
L 103.600935 32.1408 
L 104.897998 32.1408 
L 106.19506 32.1408 
L 107.492123 32.1408 
L 108.789185 32.1408 
L 110.086248 32.1408 
L 111.383311 32.1408 
L 112.680373 32.1408 
L 113.977436 32.1408 
L 115.274498 32.1408 
L 116.571561 32.1408 
L 117.868623 32.1408 
L 119.165686 32.1408 
L 120.462748 32.1408 
L 121.759811 32.1408 
L 123.056873 32.1408 
L 124.353936 32.1408 
L 125.650999 32.1408 
L 126.948061 32.1408 
L 128.245124 32.1408 
L 129.542186 32.1408 
L 130.839249 32.1408 
L 132.136311 32.1408 
L 133.433374 32.1408 
L 134.730436 32.1408 
L 136.027499 32.1408 
L 137.324561 32.1408 
L 138.621624 32.1408 
L 139.918687 32.1408 
L 141.215749 32.1408 
L 142.512812 32.1408 
L 143.809874 32.1408 
L 145.106937 32.1408 
L 146.403999 32.1408 
L 147.701062 32.1408 
L 148.998124 32.1408 
L 150.295187 32.1408 
L 151.592249 32.1408 
L 152.889312 32.1408 
L 154.186375 32.1408 
L 155.483437 32.1408 
L 156.7805 32.1408 
L 158.077562 32.1408 
L 159.374625 32.1408 
L 160.671687 32.1408 
L 161.96875 32.1408 
L 163.265812 32.1408 
L 164.562875 32.1408 
L 165.859937 32.1408 
L 167.155827 32.1408 
L 167.15552 34.224 
L 167.155133 36.3072 
L 167.154644 38.3904 
L 167.154027 40.4736 
L 167.153249 42.5568 
L 167.152266 44.64 
L 167.151027 46.7232 
L 167.149463 48.8064 
L 167.147489 50.8896 
L 167.144998 52.9728 
L 167.141856 55.056 
L 167.13789 57.1392 
L 167.132886 59.2224 
L 167.126571 61.3056 
L 167.118603 63.3888 
L 167.108549 65.472 
L 167.095861 67.5552 
L 167.079852 69.6384 
L 167.05965 71.7216 
L 167.034158 73.8048 
L 167.001992 75.888 
L 166.961402 77.9712 
L 166.910183 80.0544 
L 166.845552 82.1376 
L 166.763997 84.2208 
L 166.661087 86.304 
L 166.531228 88.3872 
L 166.367366 90.4704 
L 166.160594 92.5536 
L 165.899679 94.6368 
L 165.859937 94.944381 
L 165.699691 96.72 
L 165.469724 98.8032 
L 165.179539 100.8864 
L 164.813367 102.9696 
L 164.562875 104.21753 
L 164.397374 105.0528 
L 163.941269 107.136 
L 163.365731 109.2192 
L 163.265812 109.568285 
L 162.729914 111.3024 
L 161.96875 113.337 
L 161.948253 113.3856 
L 161.064285 115.4688 
L 160.671687 116.315937 
L 160.009124 117.552 
L 159.374625 118.697308 
L 158.763336 119.6352 
L 158.077562 120.697226 
L 157.292312 121.7184 
L 156.7805 122.411349 
L 155.546458 123.8016 
L 155.483437 123.877287 
L 154.186375 125.26462 
L 153.485858 125.8848 
L 152.889312 126.467168 
L 151.592249 127.556065 
L 151.024685 127.968 
L 150.295187 128.565416 
L 148.998124 129.488543 
L 148.079388 130.0512 
L 147.701062 130.317025 
L 146.403999 131.144271 
L 145.106937 131.852892 
L 144.535694 132.1344 
L 143.809874 132.552178 
L 142.512812 133.225874 
L 141.215749 133.817295 
L 140.237466 134.2176 
L 139.918687 134.371905 
L 138.621624 134.958026 
L 137.324561 135.481773 
L 136.027499 135.952063 
L 134.971207 136.3008 
L 134.730436 136.395983 
L 133.433374 136.8807 
L 132.136311 137.321312 
L 130.839249 137.723219 
L 129.542186 138.090994 
L 128.422561 138.384 
L 128.245124 138.440197 
L 126.948061 138.832188 
L 125.650999 139.19387 
L 124.353936 139.528385 
L 123.056873 139.838463 
L 121.759811 140.126487 
L 120.462748 140.394549 
L 120.094126 140.4672 
L 119.165686 140.690911 
L 117.868623 140.985476 
L 116.571561 141.261037 
L 115.274498 141.519206 
L 113.977436 141.761422 
L 112.680373 141.988973 
L 111.383311 142.20301 
L 110.086248 142.404571 
L 109.096347 142.5504 
L 108.789185 142.60616 
L 107.492123 142.832434 
L 106.19506 143.04617 
L 104.897998 143.248242 
L 103.600935 143.439443 
L 102.303873 143.620496 
L 101.00681 143.79206 
L 99.709748 143.954738 
L 98.412685 144.109082 
L 97.115623 144.255596 
L 95.81856 144.394745 
L 94.521497 144.526955 
L 93.423379 144.6336 
L 93.224435 144.6576 
L 91.927372 144.808367 
L 90.63031 144.951753 
L 89.333247 145.088147 
L 88.036185 145.217908 
L 86.739122 145.341371 
L 85.44206 145.458845 
L 84.144997 145.570615 
L 82.847935 145.676948 
L 81.550872 145.77809 
L 80.253809 145.874272 
L 78.956747 145.965706 
L 77.659684 146.052591 
L 76.362622 146.135111 
L 75.065559 146.213439 
L 73.768497 146.287734 
L 72.471434 146.358145 
L 71.174372 146.424812 
L 69.877309 146.487861 
L 68.580247 146.547415 
L 67.283184 146.603584 
L 65.986121 146.656471 
L 64.689059 146.706174 
L 64.394667 146.7168 
L 63.391996 146.762202 
L 62.094934 146.81721 
L 60.797871 146.868512 
L 59.500809 146.916197 
L 58.203746 146.960345 
L 56.906684 147.001031 
L 55.609621 147.038325 
L 54.312559 147.072287 
L 53.015496 147.102974 
L 51.718433 147.130435 
L 50.421371 147.154717 
L 49.124308 147.175857 
L 47.827246 147.193889 
L 46.530183 147.208844 
L 45.233121 147.220744 
L 43.936058 147.229608 
L 42.638996 147.23545 
L 41.341933 147.238281 
L 40.044871 147.238103 
L 38.747808 147.234917 
z
" clip-path="url(#p3a98d54873)" style="fill: #90ee90"/>
   </g>
   <g id="matplotlib.axis_1">
    <g id="xtick_1">
     <g id="line2d_1">
      <defs>
       <path id="m45e889675a" d="M 0 0 
L 0 3.5 
" style="stroke: #000000; stroke-width: 0.8"/>
      </defs>
      <g>
       <use xlink:href="#m45e889675a" x="40.77" y="238.3776" style="stroke: #000000; stroke-width: 0.8"/>
      </g>
     </g>
     <g id="text_1">
      <!-- 0 -->
      <g transform="translate(37.58875 252.976038)scale(0.1 -0.1)">
       <defs>
        <path id="DejaVuSans-30" d="M 2034 4250 
Q 1547 4250 1301 3770 
Q 1056 3291 1056 2328 
Q 1056 1369 1301 889 
Q 1547 409 2034 409 
Q 2525 409 2770 889 
Q 3016 1369 3016 2328 
Q 3016 3291 2770 3770 
Q 2525 4250 2034 4250 
z
M 2034 4750 
Q 2819 4750 3233 4129 
Q 3647 3509 3647 2328 
Q 3647 1150 3233 529 
Q 2819 -91 2034 -91 
Q 1250 -91 836 529 
Q 422 1150 422 2328 
Q 422 3509 836 4129 
Q 1250 4750 2034 4750 
z
" transform="scale(0.015625)"/>
       </defs>
       <use xlink:href="#DejaVuSans-30"/>
      </g>
     </g>
    </g>
    <g id="xtick_2">
     <g id="line2d_2">
      <g>
       <use xlink:href="#m45e889675a" x="81.21384" y="238.3776" style="stroke: #000000; stroke-width: 0.8"/>
      </g>
     </g>
     <g id="text_2">
      <!-- 20 -->
      <g transform="translate(74.85134 252.976038)scale(0.1 -0.1)">
       <defs>
        <path id="DejaVuSans-32" d="M 1228 531 
L 3431 531 
L 3431 0 
L 469 0 
L 469 531 
Q 828 903 1448 1529 
Q 2069 2156 2228 2338 
Q 2531 2678 2651 2914 
Q 2772 3150 2772 3378 
Q 2772 3750 2511 3984 
Q 2250 4219 1831 4219 
Q 1534 4219 1204 4116 
Q 875 4013 500 3803 
L 500 4441 
Q 881 4594 1212 4672 
Q 1544 4750 1819 4750 
Q 2544 4750 2975 4387 
Q 3406 4025 3406 3419 
Q 3406 3131 3298 2873 
Q 3191 2616 2906 2266 
Q 2828 2175 2409 1742 
Q 1991 1309 1228 531 
z
" transform="scale(0.015625)"/>
       </defs>
       <use xlink:href="#DejaVuSans-32"/>
       <use xlink:href="#DejaVuSans-30" x="63.623047"/>
      </g>
     </g>
    </g>
    <g id="xtick_3">
     <g id="line2d_3">
      <g>
       <use xlink:href="#m45e889675a" x="121.65768" y="238.3776" style="stroke: #000000; stroke-width: 0.8"/>
      </g>
     </g>
     <g id="text_3">
      <!-- 40 -->
      <g transform="translate(115.29518 252.976038)scale(0.1 -0.1)">
       <defs>
        <path id="DejaVuSans-34" d="M 2419 4116 
L 825 1625 
L 2419 1625 
L 2419 4116 
z
M 2253 4666 
L 3047 4666 
L 3047 1625 
L 3713 1625 
L 3713 1100 
L 3047 1100 
L 3047 0 
L 2419 0 
L 2419 1100 
L 313 1100 
L 313 1709 
L 2253 4666 
z
" transform="scale(0.015625)"/>
       </defs>
       <use xlink:href="#DejaVuSans-34"/>
       <use xlink:href="#DejaVuSans-30" x="63.623047"/>
      </g>
     </g>
    </g>
    <g id="xtick_4">
     <g id="line2d_4">
      <g>
       <use xlink:href="#m45e889675a" x="162.10152" y="238.3776" style="stroke: #000000; stroke-width: 0.8"/>
      </g>
     </g>
     <g id="text_4">
      <!-- 60 -->
      <g transform="translate(155.73902 252.976038)scale(0.1 -0.1)">
       <defs>
        <path id="DejaVuSans-36" d="M 2113 2584 
Q 1688 2584 1439 2293 
Q 1191 2003 1191 1497 
Q 1191 994 1439 701 
Q 1688 409 2113 409 
Q 2538 409 2786 701 
Q 3034 994 3034 1497 
Q 3034 2003 2786 2293 
Q 2538 2584 2113 2584 
z
M 3366 4563 
L 3366 3988 
Q 3128 4100 2886 4159 
Q 2644 4219 2406 4219 
Q 1781 4219 1451 3797 
Q 1122 3375 1075 2522 
Q 1259 2794 1537 2939 
Q 1816 3084 2150 3084 
Q 2853 3084 3261 2657 
Q 3669 2231 3669 1497 
Q 3669 778 3244 343 
Q 2819 -91 2113 -91 
Q 1303 -91 875 529 
Q 447 1150 447 2328 
Q 447 3434 972 4092 
Q 1497 4750 2381 4750 
Q 2619 4750 2861 4703 
Q 3103 4656 3366 4563 
z
" transform="scale(0.015625)"/>
       </defs>
       <use xlink:href="#DejaVuSans-36"/>
       <use xlink:href="#DejaVuSans-30" x="63.623047"/>
      </g>
     </g>
    </g>
    <g id="xtick_5">
     <g id="line2d_5">
      <g>
       <use xlink:href="#m45e889675a" x="202.54536" y="238.3776" style="stroke: #000000; stroke-width: 0.8"/>
      </g>
     </g>
     <g id="text_5">
      <!-- 80 -->
      <g transform="translate(196.18286 252.976038)scale(0.1 -0.1)">
       <defs>
        <path id="DejaVuSans-38" d="M 2034 2216 
Q 1584 2216 1326 1975 
Q 1069 1734 1069 1313 
Q 1069 891 1326 650 
Q 1584 409 2034 409 
Q 2484 409 2743 651 
Q 3003 894 3003 1313 
Q 3003 1734 2745 1975 
Q 2488 2216 2034 2216 
z
M 1403 2484 
Q 997 2584 770 2862 
Q 544 3141 544 3541 
Q 544 4100 942 4425 
Q 1341 4750 2034 4750 
Q 2731 4750 3128 4425 
Q 3525 4100 3525 3541 
Q 3525 3141 3298 2862 
Q 3072 2584 2669 2484 
Q 3125 2378 3379 2068 
Q 3634 1759 3634 1313 
Q 3634 634 3220 271 
Q 2806 -91 2034 -91 
Q 1263 -91 848 271 
Q 434 634 434 1313 
Q 434 1759 690 2068 
Q 947 2378 1403 2484 
z
M 1172 3481 
Q 1172 3119 1398 2916 
Q 1625 2713 2034 2713 
Q 2441 2713 2670 2916 
Q 2900 3119 2900 3481 
Q 2900 3844 2670 4047 
Q 2441 4250 2034 4250 
Q 1625 4250 1398 4047 
Q 1172 3844 1172 3481 
z
" transform="scale(0.015625)"/>
       </defs>
       <use xlink:href="#DejaVuSans-38"/>
       <use xlink:href="#DejaVuSans-30" x="63.623047"/>
      </g>
     </g>
    </g>
    <g id="xtick_6">
     <g id="line2d_6">
      <g>
       <use xlink:href="#m45e889675a" x="242.9892" y="238.3776" style="stroke: #000000; stroke-width: 0.8"/>
      </g>
     </g>
     <g id="text_6">
      <!-- 100 -->
      <g transform="translate(233.44545 252.976038)scale(0.1 -0.1)">
       <defs>
        <path id="DejaVuSans-31" d="M 794 531 
L 1825 531 
L 1825 4091 
L 703 3866 
L 703 4441 
L 1819 4666 
L 2450 4666 
L 2450 531 
L 3481 531 
L 3481 0 
L 794 0 
L 794 531 
z
" transform="scale(0.015625)"/>
       </defs>
       <use xlink:href="#DejaVuSans-31"/>
       <use xlink:href="#DejaVuSans-30" x="63.623047"/>
       <use xlink:href="#DejaVuSans-30" x="127.246094"/>
      </g>
     </g>
    </g>
    <g id="xtick_7">
     <g id="line2d_7">
      <g>
       <use xlink:href="#m45e889675a" x="283.43304" y="238.3776" style="stroke: #000000; stroke-width: 0.8"/>
      </g>
     </g>
     <g id="text_7">
      <!-- 120 -->
      <g transform="translate(273.88929 252.976038)scale(0.1 -0.1)">
       <use xlink:href="#DejaVuSans-31"/>
       <use xlink:href="#DejaVuSans-32" x="63.623047"/>
       <use xlink:href="#DejaVuSans-30" x="127.246094"/>
      </g>
     </g>
    </g>
    <g id="text_8">
     <!-- $m_{DM}$ [GeV] -->
     <g transform="translate(140.557 266.654163)scale(0.1 -0.1)">
      <defs>
       <path id="DejaVuSans-Oblique-6d" d="M 5747 2113 
L 5338 0 
L 4763 0 
L 5166 2094 
Q 5191 2228 5203 2325 
Q 5216 2422 5216 2491 
Q 5216 2772 5059 2928 
Q 4903 3084 4622 3084 
Q 4203 3084 3875 2770 
Q 3547 2456 3450 1953 
L 3066 0 
L 2491 0 
L 2900 2094 
Q 2925 2209 2937 2307 
Q 2950 2406 2950 2484 
Q 2950 2769 2794 2926 
Q 2638 3084 2363 3084 
Q 1938 3084 1609 2770 
Q 1281 2456 1184 1953 
L 800 0 
L 225 0 
L 909 3500 
L 1484 3500 
L 1375 2956 
Q 1609 3263 1923 3423 
Q 2238 3584 2597 3584 
Q 2978 3584 3223 3384 
Q 3469 3184 3519 2828 
Q 3781 3197 4126 3390 
Q 4472 3584 4856 3584 
Q 5306 3584 5551 3325 
Q 5797 3066 5797 2591 
Q 5797 2488 5784 2364 
Q 5772 2241 5747 2113 
z
" transform="scale(0.015625)"/>
       <path id="DejaVuSans-Oblique-44" d="M 1081 4666 
L 2438 4666 
Q 3519 4666 4070 4208 
Q 4622 3750 4622 2847 
Q 4622 2250 4412 1698 
Q 4203 1147 3834 769 
Q 3463 381 2891 190 
Q 2319 0 1538 0 
L 172 0 
L 1081 4666 
z
M 1613 4147 
L 909 519 
L 1734 519 
Q 2794 519 3375 1128 
Q 3956 1738 3956 2847 
Q 3956 3519 3581 3833 
Q 3206 4147 2406 4147 
L 1613 4147 
z
" transform="scale(0.015625)"/>
       <path id="DejaVuSans-Oblique-4d" d="M 1081 4666 
L 2028 4666 
L 2572 1522 
L 4378 4666 
L 5350 4666 
L 4441 0 
L 3828 0 
L 4622 4091 
L 2791 897 
L 2175 897 
L 1581 4103 
L 788 0 
L 172 0 
L 1081 4666 
z
" transform="scale(0.015625)"/>
       <path id="DejaVuSans-20" transform="scale(0.015625)"/>
       <path id="DejaVuSans-5b" d="M 550 4863 
L 1875 4863 
L 1875 4416 
L 1125 4416 
L 1125 -397 
L 1875 -397 
L 1875 -844 
L 550 -844 
L 550 4863 
z
" transform="scale(0.015625)"/>
       <path id="DejaVuSans-47" d="M 3809 666 
L 3809 1919 
L 2778 1919 
L 2778 2438 
L 4434 2438 
L 4434 434 
Q 4069 175 3628 42 
Q 3188 -91 2688 -91 
Q 1594 -91 976 548 
Q 359 1188 359 2328 
Q 359 3472 976 4111 
Q 1594 4750 2688 4750 
Q 3144 4750 3555 4637 
Q 3966 4525 4313 4306 
L 4313 3634 
Q 3963 3931 3569 4081 
Q 3175 4231 2741 4231 
Q 1884 4231 1454 3753 
Q 1025 3275 1025 2328 
Q 1025 1384 1454 906 
Q 1884 428 2741 428 
Q 3075 428 3337 486 
Q 3600 544 3809 666 
z
" transform="scale(0.015625)"/>
       <path id="DejaVuSans-65" d="M 3597 1894 
L 3597 1613 
L 953 1613 
Q 991 1019 1311 708 
Q 1631 397 2203 397 
Q 2534 397 2845 478 
Q 3156 559 3463 722 
L 3463 178 
Q 3153 47 2828 -22 
Q 2503 -91 2169 -91 
Q 1331 -91 842 396 
Q 353 884 353 1716 
Q 353 2575 817 3079 
Q 1281 3584 2069 3584 
Q 2775 3584 3186 3129 
Q 3597 2675 3597 1894 
z
M 3022 2063 
Q 3016 2534 2758 2815 
Q 2500 3097 2075 3097 
Q 1594 3097 1305 2825 
Q 1016 2553 972 2059 
L 3022 2063 
z
" transform="scale(0.015625)"/>
       <path id="DejaVuSans-56" d="M 1831 0 
L 50 4666 
L 709 4666 
L 2188 738 
L 3669 4666 
L 4325 4666 
L 2547 0 
L 1831 0 
z
" transform="scale(0.015625)"/>
       <path id="DejaVuSans-5d" d="M 1947 4863 
L 1947 -844 
L 622 -844 
L 622 -397 
L 1369 -397 
L 1369 4416 
L 622 4416 
L 622 4863 
L 1947 4863 
z
" transform="scale(0.015625)"/>
      </defs>
      <use xlink:href="#DejaVuSans-Oblique-6d" transform="translate(0 0.015625)"/>
      <use xlink:href="#DejaVuSans-Oblique-44" transform="translate(97.412109 -16.390625)scale(0.7)"/>
      <use xlink:href="#DejaVuSans-Oblique-4d" transform="translate(151.313477 -16.390625)scale(0.7)"/>
      <use xlink:href="#DejaVuSans-20" transform="translate(214.443359 0.015625)"/>
      <use xlink:href="#DejaVuSans-5b" transform="translate(246.230469 0.015625)"/>
      <use xlink:href="#DejaVuSans-47" transform="translate(285.244141 0.015625)"/>
      <use xlink:href="#DejaVuSans-65" transform="translate(362.734375 0.015625)"/>
      <use xlink:href="#DejaVuSans-56" transform="translate(424.257812 0.015625)"/>
      <use xlink:href="#DejaVuSans-5d" transform="translate(492.666016 0.015625)"/>
     </g>
    </g>
   </g>
   <g id="matplotlib.axis_2">
    <g id="ytick_1">
     <g id="line2d_8">
      <defs>
       <path id="ma05e6ef05e" d="M 0 0 
L -3.5 0 
" style="stroke: #000000; stroke-width: 0.8"/>
      </defs>
      <g>
       <use xlink:href="#ma05e6ef05e" x="40.77" y="238.3776" style="stroke: #000000; stroke-width: 0.8"/>
      </g>
     </g>
     <g id="text_9">
      <!-- −4 -->
      <g transform="translate(19.027813 242.176819)scale(0.1 -0.1)">
       <defs>
        <path id="DejaVuSans-2212" d="M 678 2272 
L 4684 2272 
L 4684 1741 
L 678 1741 
L 678 2272 
z
" transform="scale(0.015625)"/>
       </defs>
       <use xlink:href="#DejaVuSans-2212"/>
       <use xlink:href="#DejaVuSans-34" x="83.789062"/>
      </g>
     </g>
    </g>
    <g id="ytick_2">
     <g id="line2d_9">
      <g>
       <use xlink:href="#ma05e6ef05e" x="40.77" y="197.13024" style="stroke: #000000; stroke-width: 0.8"/>
      </g>
     </g>
     <g id="text_10">
      <!-- −3 -->
      <g transform="translate(19.027813 200.929459)scale(0.1 -0.1)">
       <defs>
        <path id="DejaVuSans-33" d="M 2597 2516 
Q 3050 2419 3304 2112 
Q 3559 1806 3559 1356 
Q 3559 666 3084 287 
Q 2609 -91 1734 -91 
Q 1441 -91 1130 -33 
Q 819 25 488 141 
L 488 750 
Q 750 597 1062 519 
Q 1375 441 1716 441 
Q 2309 441 2620 675 
Q 2931 909 2931 1356 
Q 2931 1769 2642 2001 
Q 2353 2234 1838 2234 
L 1294 2234 
L 1294 2753 
L 1863 2753 
Q 2328 2753 2575 2939 
Q 2822 3125 2822 3475 
Q 2822 3834 2567 4026 
Q 2313 4219 1838 4219 
Q 1578 4219 1281 4162 
Q 984 4106 628 3988 
L 628 4550 
Q 988 4650 1302 4700 
Q 1616 4750 1894 4750 
Q 2613 4750 3031 4423 
Q 3450 4097 3450 3541 
Q 3450 3153 3228 2886 
Q 3006 2619 2597 2516 
z
" transform="scale(0.015625)"/>
       </defs>
       <use xlink:href="#DejaVuSans-2212"/>
       <use xlink:href="#DejaVuSans-33" x="83.789062"/>
      </g>
     </g>
    </g>
    <g id="ytick_3">
     <g id="line2d_10">
      <g>
       <use xlink:href="#ma05e6ef05e" x="40.77" y="155.88288" style="stroke: #000000; stroke-width: 0.8"/>
      </g>
     </g>
     <g id="text_11">
      <!-- −2 -->
      <g transform="translate(19.027813 159.682099)scale(0.1 -0.1)">
       <use xlink:href="#DejaVuSans-2212"/>
       <use xlink:href="#DejaVuSans-32" x="83.789062"/>
      </g>
     </g>
    </g>
    <g id="ytick_4">
     <g id="line2d_11">
      <g>
       <use xlink:href="#ma05e6ef05e" x="40.77" y="114.63552" style="stroke: #000000; stroke-width: 0.8"/>
      </g>
     </g>
     <g id="text_12">
      <!-- −1 -->
      <g transform="translate(19.027813 118.434739)scale(0.1 -0.1)">
       <use xlink:href="#DejaVuSans-2212"/>
       <use xlink:href="#DejaVuSans-31" x="83.789062"/>
      </g>
     </g>
    </g>
    <g id="ytick_5">
     <g id="line2d_12">
      <g>
       <use xlink:href="#ma05e6ef05e" x="40.77" y="73.38816" style="stroke: #000000; stroke-width: 0.8"/>
      </g>
     </g>
     <g id="text_13">
      <!-- 0 -->
      <g transform="translate(27.4075 77.187379)scale(0.1 -0.1)">
       <use xlink:href="#DejaVuSans-30"/>
      </g>
     </g>
    </g>
    <g id="ytick_6">
     <g id="line2d_13">
      <g>
       <use xlink:href="#ma05e6ef05e" x="40.77" y="32.1408" style="stroke: #000000; stroke-width: 0.8"/>
      </g>
     </g>
     <g id="text_14">
      <!-- 1 -->
      <g transform="translate(27.4075 35.940019)scale(0.1 -0.1)">
       <use xlink:href="#DejaVuSans-31"/>
      </g>
     </g>
    </g>
    <g id="text_15">
     <!-- $\log(\lambda)$ -->
     <g transform="translate(12.927813 149.7592)rotate(-90)scale(0.1 -0.1)">
      <defs>
       <path id="DejaVuSans-6c" d="M 603 4863 
L 1178 4863 
L 1178 0 
L 603 0 
L 603 4863 
z
" transform="scale(0.015625)"/>
       <path id="DejaVuSans-6f" d="M 1959 3097 
Q 1497 3097 1228 2736 
Q 959 2375 959 1747 
Q 959 1119 1226 758 
Q 1494 397 1959 397 
Q 2419 397 2687 759 
Q 2956 1122 2956 1747 
Q 2956 2369 2687 2733 
Q 2419 3097 1959 3097 
z
M 1959 3584 
Q 2709 3584 3137 3096 
Q 3566 2609 3566 1747 
Q 3566 888 3137 398 
Q 2709 -91 1959 -91 
Q 1206 -91 779 398 
Q 353 888 353 1747 
Q 353 2609 779 3096 
Q 1206 3584 1959 3584 
z
" transform="scale(0.015625)"/>
       <path id="DejaVuSans-67" d="M 2906 1791 
Q 2906 2416 2648 2759 
Q 2391 3103 1925 3103 
Q 1463 3103 1205 2759 
Q 947 2416 947 1791 
Q 947 1169 1205 825 
Q 1463 481 1925 481 
Q 2391 481 2648 825 
Q 2906 1169 2906 1791 
z
M 3481 434 
Q 3481 -459 3084 -895 
Q 2688 -1331 1869 -1331 
Q 1566 -1331 1297 -1286 
Q 1028 -1241 775 -1147 
L 775 -588 
Q 1028 -725 1275 -790 
Q 1522 -856 1778 -856 
Q 2344 -856 2625 -561 
Q 2906 -266 2906 331 
L 2906 616 
Q 2728 306 2450 153 
Q 2172 0 1784 0 
Q 1141 0 747 490 
Q 353 981 353 1791 
Q 353 2603 747 3093 
Q 1141 3584 1784 3584 
Q 2172 3584 2450 3431 
Q 2728 3278 2906 2969 
L 2906 3500 
L 3481 3500 
L 3481 434 
z
" transform="scale(0.015625)"/>
       <path id="DejaVuSans-28" d="M 1984 4856 
Q 1566 4138 1362 3434 
Q 1159 2731 1159 2009 
Q 1159 1288 1364 580 
Q 1569 -128 1984 -844 
L 1484 -844 
Q 1016 -109 783 600 
Q 550 1309 550 2009 
Q 550 2706 781 3412 
Q 1013 4119 1484 4856 
L 1984 4856 
z
" transform="scale(0.015625)"/>
       <path id="DejaVuSans-Oblique-3bb" d="M 2350 4316 
L 3125 0 
L 2516 0 
L 2038 2588 
L 328 0 
L -281 0 
L 1903 3356 
L 1794 3975 
Q 1725 4369 1391 4369 
L 1091 4369 
L 1184 4863 
L 1550 4856 
Q 2253 4847 2350 4316 
z
" transform="scale(0.015625)"/>
       <path id="DejaVuSans-29" d="M 513 4856 
L 1013 4856 
Q 1481 4119 1714 3412 
Q 1947 2706 1947 2009 
Q 1947 1309 1714 600 
Q 1481 -109 1013 -844 
L 513 -844 
Q 928 -128 1133 580 
Q 1338 1288 1338 2009 
Q 1338 2731 1133 3434 
Q 928 4138 513 4856 
z
" transform="scale(0.015625)"/>
      </defs>
      <use xlink:href="#DejaVuSans-6c" transform="translate(0 0.015625)"/>
      <use xlink:href="#DejaVuSans-6f" transform="translate(27.783203 0.015625)"/>
      <use xlink:href="#DejaVuSans-67" transform="translate(88.964844 0.015625)"/>
      <use xlink:href="#DejaVuSans-28" transform="translate(152.441406 0.015625)"/>
      <use xlink:href="#DejaVuSans-Oblique-3bb" transform="translate(191.455078 0.015625)"/>
      <use xlink:href="#DejaVuSans-29" transform="translate(250.634766 0.015625)"/>
     </g>
    </g>
   </g>
   <g id="patch_3">
    <path d="M 40.77 238.3776 
L 40.77 32.1408 
" style="fill: none; stroke: #000000; stroke-width: 0.8; stroke-linejoin: miter; stroke-linecap: square"/>
   </g>
   <g id="patch_4">
    <path d="M 293.544 238.3776 
L 293.544 32.1408 
" style="fill: none; stroke: #000000; stroke-width: 0.8; stroke-linejoin: miter; stroke-linecap: square"/>
   </g>
   <g id="patch_5">
    <path d="M 40.77 238.3776 
L 293.544 238.3776 
" style="fill: none; stroke: #000000; stroke-width: 0.8; stroke-linejoin: miter; stroke-linecap: square"/>
   </g>
   <g id="patch_6">
    <path d="M 40.77 32.1408 
L 293.544 32.1408 
" style="fill: none; stroke: #000000; stroke-width: 0.8; stroke-linejoin: miter; stroke-linecap: square"/>
   </g>
   <g id="legend_1">
    <g id="patch_7">
     <path d="M 214.278375 84.175175 
L 286.544 84.175175 
Q 288.544 84.175175 288.544 82.175175 
L 288.544 39.1408 
Q 288.544 37.1408 286.544 37.1408 
L 214.278375 37.1408 
Q 212.278375 37.1408 212.278375 39.1408 
L 212.278375 82.175175 
Q 212.278375 84.175175 214.278375 84.175175 
z
" style="fill: #ffffff; opacity: 0.8; stroke: #cccccc; stroke-linejoin: miter"/>
    </g>
    <g id="patch_8">
     <path d="M 216.278375 48.739238 
L 236.278375 48.739238 
L 236.278375 41.739238 
L 216.278375 41.739238 
z
" style="fill: #b0c4de; stroke: #b0c4de; stroke-linejoin: miter"/>
    </g>
    <g id="text_16">
     <!-- Vektor -->
     <g transform="translate(244.278375 48.739238)scale(0.1 -0.1)">
      <defs>
       <path id="DejaVuSans-6b" d="M 581 4863 
L 1159 4863 
L 1159 1991 
L 2875 3500 
L 3609 3500 
L 1753 1863 
L 3688 0 
L 2938 0 
L 1159 1709 
L 1159 0 
L 581 0 
L 581 4863 
z
" transform="scale(0.015625)"/>
       <path id="DejaVuSans-74" d="M 1172 4494 
L 1172 3500 
L 2356 3500 
L 2356 3053 
L 1172 3053 
L 1172 1153 
Q 1172 725 1289 603 
Q 1406 481 1766 481 
L 2356 481 
L 2356 0 
L 1766 0 
Q 1100 0 847 248 
Q 594 497 594 1153 
L 594 3053 
L 172 3053 
L 172 3500 
L 594 3500 
L 594 4494 
L 1172 4494 
z
" transform="scale(0.015625)"/>
       <path id="DejaVuSans-72" d="M 2631 2963 
Q 2534 3019 2420 3045 
Q 2306 3072 2169 3072 
Q 1681 3072 1420 2755 
Q 1159 2438 1159 1844 
L 1159 0 
L 581 0 
L 581 3500 
L 1159 3500 
L 1159 2956 
Q 1341 3275 1631 3429 
Q 1922 3584 2338 3584 
Q 2397 3584 2469 3576 
Q 2541 3569 2628 3553 
L 2631 2963 
z
" transform="scale(0.015625)"/>
      </defs>
      <use xlink:href="#DejaVuSans-56"/>
      <use xlink:href="#DejaVuSans-65" x="60.658203"/>
      <use xlink:href="#DejaVuSans-6b" x="122.181641"/>
      <use xlink:href="#DejaVuSans-74" x="180.091797"/>
      <use xlink:href="#DejaVuSans-6f" x="219.300781"/>
      <use xlink:href="#DejaVuSans-72" x="280.482422"/>
     </g>
    </g>
    <g id="patch_9">
     <path d="M 216.278375 63.417363 
L 236.278375 63.417363 
L 236.278375 56.417363 
L 216.278375 56.417363 
z
" style="fill: #f08080; stroke: #f08080; stroke-linejoin: miter"/>
    </g>
    <g id="text_17">
     <!-- Skalär -->
     <g transform="translate(244.278375 63.417363)scale(0.1 -0.1)">
      <defs>
       <path id="DejaVuSans-53" d="M 3425 4513 
L 3425 3897 
Q 3066 4069 2747 4153 
Q 2428 4238 2131 4238 
Q 1616 4238 1336 4038 
Q 1056 3838 1056 3469 
Q 1056 3159 1242 3001 
Q 1428 2844 1947 2747 
L 2328 2669 
Q 3034 2534 3370 2195 
Q 3706 1856 3706 1288 
Q 3706 609 3251 259 
Q 2797 -91 1919 -91 
Q 1588 -91 1214 -16 
Q 841 59 441 206 
L 441 856 
Q 825 641 1194 531 
Q 1563 422 1919 422 
Q 2459 422 2753 634 
Q 3047 847 3047 1241 
Q 3047 1584 2836 1778 
Q 2625 1972 2144 2069 
L 1759 2144 
Q 1053 2284 737 2584 
Q 422 2884 422 3419 
Q 422 4038 858 4394 
Q 1294 4750 2059 4750 
Q 2388 4750 2728 4690 
Q 3069 4631 3425 4513 
z
" transform="scale(0.015625)"/>
       <path id="DejaVuSans-61" d="M 2194 1759 
Q 1497 1759 1228 1600 
Q 959 1441 959 1056 
Q 959 750 1161 570 
Q 1363 391 1709 391 
Q 2188 391 2477 730 
Q 2766 1069 2766 1631 
L 2766 1759 
L 2194 1759 
z
M 3341 1997 
L 3341 0 
L 2766 0 
L 2766 531 
Q 2569 213 2275 61 
Q 1981 -91 1556 -91 
Q 1019 -91 701 211 
Q 384 513 384 1019 
Q 384 1609 779 1909 
Q 1175 2209 1959 2209 
L 2766 2209 
L 2766 2266 
Q 2766 2663 2505 2880 
Q 2244 3097 1772 3097 
Q 1472 3097 1187 3025 
Q 903 2953 641 2809 
L 641 3341 
Q 956 3463 1253 3523 
Q 1550 3584 1831 3584 
Q 2591 3584 2966 3190 
Q 3341 2797 3341 1997 
z
" transform="scale(0.015625)"/>
       <path id="DejaVuSans-e4" d="M 2194 1759 
Q 1497 1759 1228 1600 
Q 959 1441 959 1056 
Q 959 750 1161 570 
Q 1363 391 1709 391 
Q 2188 391 2477 730 
Q 2766 1069 2766 1631 
L 2766 1759 
L 2194 1759 
z
M 3341 1997 
L 3341 0 
L 2766 0 
L 2766 531 
Q 2569 213 2275 61 
Q 1981 -91 1556 -91 
Q 1019 -91 701 211 
Q 384 513 384 1019 
Q 384 1609 779 1909 
Q 1175 2209 1959 2209 
L 2766 2209 
L 2766 2266 
Q 2766 2663 2505 2880 
Q 2244 3097 1772 3097 
Q 1472 3097 1187 3025 
Q 903 2953 641 2809 
L 641 3341 
Q 956 3463 1253 3523 
Q 1550 3584 1831 3584 
Q 2591 3584 2966 3190 
Q 3341 2797 3341 1997 
z
M 2150 4850 
L 2784 4850 
L 2784 4219 
L 2150 4219 
L 2150 4850 
z
M 928 4850 
L 1562 4850 
L 1562 4219 
L 928 4219 
L 928 4850 
z
" transform="scale(0.015625)"/>
      </defs>
      <use xlink:href="#DejaVuSans-53"/>
      <use xlink:href="#DejaVuSans-6b" x="63.476562"/>
      <use xlink:href="#DejaVuSans-61" x="119.636719"/>
      <use xlink:href="#DejaVuSans-6c" x="180.916016"/>
      <use xlink:href="#DejaVuSans-e4" x="208.699219"/>
      <use xlink:href="#DejaVuSans-72" x="269.978516"/>
     </g>
    </g>
    <g id="patch_10">
     <path d="M 216.278375 78.095488 
L 236.278375 78.095488 
L 236.278375 71.095488 
L 216.278375 71.095488 
z
" style="fill: #90ee90; stroke: #90ee90; stroke-linejoin: miter"/>
    </g>
    <g id="text_18">
     <!-- Fermion -->
     <g transform="translate(244.278375 78.095488)scale(0.1 -0.1)">
      <defs>
       <path id="DejaVuSans-46" d="M 628 4666 
L 3309 4666 
L 3309 4134 
L 1259 4134 
L 1259 2759 
L 3109 2759 
L 3109 2228 
L 1259 2228 
L 1259 0 
L 628 0 
L 628 4666 
z
" transform="scale(0.015625)"/>
       <path id="DejaVuSans-6d" d="M 3328 2828 
Q 3544 3216 3844 3400 
Q 4144 3584 4550 3584 
Q 5097 3584 5394 3201 
Q 5691 2819 5691 2113 
L 5691 0 
L 5113 0 
L 5113 2094 
Q 5113 2597 4934 2840 
Q 4756 3084 4391 3084 
Q 3944 3084 3684 2787 
Q 3425 2491 3425 1978 
L 3425 0 
L 2847 0 
L 2847 2094 
Q 2847 2600 2669 2842 
Q 2491 3084 2119 3084 
Q 1678 3084 1418 2786 
Q 1159 2488 1159 1978 
L 1159 0 
L 581 0 
L 581 3500 
L 1159 3500 
L 1159 2956 
Q 1356 3278 1631 3431 
Q 1906 3584 2284 3584 
Q 2666 3584 2933 3390 
Q 3200 3197 3328 2828 
z
" transform="scale(0.015625)"/>
       <path id="DejaVuSans-69" d="M 603 3500 
L 1178 3500 
L 1178 0 
L 603 0 
L 603 3500 
z
M 603 4863 
L 1178 4863 
L 1178 4134 
L 603 4134 
L 603 4863 
z
" transform="scale(0.015625)"/>
       <path id="DejaVuSans-6e" d="M 3513 2113 
L 3513 0 
L 2938 0 
L 2938 2094 
Q 2938 2591 2744 2837 
Q 2550 3084 2163 3084 
Q 1697 3084 1428 2787 
Q 1159 2491 1159 1978 
L 1159 0 
L 581 0 
L 581 3500 
L 1159 3500 
L 1159 2956 
Q 1366 3272 1645 3428 
Q 1925 3584 2291 3584 
Q 2894 3584 3203 3211 
Q 3513 2838 3513 2113 
z
" transform="scale(0.015625)"/>
      </defs>
      <use xlink:href="#DejaVuSans-46"/>
      <use xlink:href="#DejaVuSans-65" x="52.019531"/>
      <use xlink:href="#DejaVuSans-72" x="113.542969"/>
      <use xlink:href="#DejaVuSans-6d" x="152.90625"/>
      <use xlink:href="#DejaVuSans-69" x="250.318359"/>
      <use xlink:href="#DejaVuSans-6f" x="278.101562"/>
      <use xlink:href="#DejaVuSans-6e" x="339.283203"/>
     </g>
    </g>
   </g>
  </g>
 </g>
 <defs>
  <clipPath id="p3a98d54873">
   <rect x="40.77" y="32.1408" width="252.774" height="206.2368"/>
  </clipPath>
 </defs>
 <defs>
  <pattern id="h902e7c73e2" patternUnits="userSpaceOnUse" x="0" y="0" width="72" height="72">
   <rect x="0" y="0" width="73" height="73" fill="#ff4500"/>
   <path d="M -36 36 
L 36 -36 
M -24 48 
L 48 -24 
M -12 60 
L 60 -12 
M 0 72 
L 72 0 
M 12 84 
L 84 12 
M 24 96 
L 96 24 
M 36 108 
L 108 36 
M -36 36 
L 36 108 
M -24 24 
L 48 96 
M -12 12 
L 60 84 
M 0 0 
L 72 72 
M 12 -12 
L 84 60 
M 24 -24 
L 96 48 
M 36 -36 
L 108 36 
" style="fill: #000000; stroke: #000000; stroke-width: 1.0; stroke-linecap: butt; stroke-linejoin: miter"/>
  </pattern>
 </defs>
</svg>
