<?xml version="1.0" encoding="utf-8" standalone="no"?>
<!DOCTYPE svg PUBLIC "-//W3C//DTD SVG 1.1//EN"
  "http://www.w3.org/Graphics/SVG/1.1/DTD/svg11.dtd">
<svg xmlns:xlink="http://www.w3.org/1999/xlink" width="460.8pt" height="345.6pt" viewBox="0 0 460.8 345.6" xmlns="http://www.w3.org/2000/svg" version="1.1">
 <metadata>
  <rdf:RDF xmlns:dc="http://purl.org/dc/elements/1.1/" xmlns:cc="http://creativecommons.org/ns#" xmlns:rdf="http://www.w3.org/1999/02/22-rdf-syntax-ns#">
   <cc:Work>
    <dc:type rdf:resource="http://purl.org/dc/dcmitype/StillImage"/>
    <dc:date>2023-05-05T08:33:05.374952</dc:date>
    <dc:format>image/svg+xml</dc:format>
    <dc:creator>
     <cc:Agent>
      <dc:title>Matplotlib v3.5.1, https://matplotlib.org/</dc:title>
     </cc:Agent>
    </dc:creator>
   </cc:Work>
  </rdf:RDF>
 </metadata>
 <defs>
  <style type="text/css">*{stroke-linejoin: round; stroke-linecap: butt}</style>
 </defs>
 <g id="figure_1">
  <g id="patch_1">
   <path d="M 0 345.6 
L 460.8 345.6 
L 460.8 0 
L 0 0 
z
" style="fill: #ffffff"/>
  </g>
  <g id="axes_1">
   <g id="patch_2">
    <path d="M 57.6 307.584 
L 414.72 307.584 
L 414.72 41.472 
L 57.6 41.472 
z
" style="fill: #ffffff"/>
   </g>
   <g id="PathCollection_1">
    <path d="M 236.16 304.896 
L 236.16 302.208 
L 236.16 299.52 
L 236.16 296.832 
L 236.16 294.144 
L 236.16 291.456 
L 236.16 288.768 
L 236.16 286.08 
L 236.16 283.392 
L 236.16 280.704 
L 236.16 278.016 
L 236.16 275.328 
L 236.16 272.64 
L 236.16 269.952 
L 236.16 267.264 
L 236.16 264.576 
L 236.16 261.888 
L 236.16 259.2 
L 236.16 256.512 
L 236.16 253.824 
L 236.16 251.136 
L 236.16 248.448 
L 236.16 245.76 
L 236.16 243.072 
L 236.16 240.384 
L 236.16 237.696 
L 236.16 235.008 
L 236.16 232.32 
L 236.16 229.632 
L 236.16 226.944 
L 236.16 224.256 
L 236.16 221.568 
L 236.16 218.88 
L 236.16 216.192 
L 236.16 213.504 
L 236.16 210.816 
L 236.16 208.128 
L 236.16 205.44 
L 236.16 202.752 
L 236.16 200.064 
L 236.16 197.376 
L 236.16 194.688 
L 236.16 192 
L 236.16 189.312 
L 236.16 186.624 
L 236.16 183.936 
L 236.16 181.248 
L 236.16 178.56 
L 236.16 175.872 
L 236.16 173.184 
L 236.16 170.496 
L 236.16 167.808 
L 236.16 165.12 
L 236.16 162.432 
L 236.16 159.744 
L 236.16 157.056 
L 236.16 154.368 
L 236.16 151.68 
L 236.16 148.992 
L 236.16 146.304 
L 236.16 143.616 
L 236.16 140.928 
L 236.16 138.24 
L 236.16 135.552 
L 236.16 132.864 
L 236.16 130.176 
L 236.16 127.488 
L 236.16 124.8 
L 236.16 122.112 
L 236.16 119.424 
L 236.16 116.736 
L 236.16 114.048 
L 236.16 111.36 
L 236.16 108.672 
L 236.16 105.984 
L 236.16 103.296 
L 236.16 100.608 
L 236.16 97.92 
L 236.16 95.232 
L 236.16 92.544 
L 236.16 89.856 
L 236.16 87.168 
L 236.16 84.48 
L 236.16 81.792 
L 236.16 79.104 
L 236.16 76.416 
L 236.16 73.728 
L 236.16 71.04 
L 236.16 68.352 
L 236.16 65.664 
L 236.16 62.976 
L 236.16 60.288 
L 236.16 57.6 
L 236.16 54.912 
L 236.16 52.224 
L 236.16 49.536 
L 236.16 46.848 
L 236.16 44.16 
L 236.16 41.472 
L 237.963636 41.472 
L 239.767273 41.472 
L 241.570909 41.472 
L 243.374545 41.472 
L 245.178182 41.472 
L 246.981818 41.472 
L 248.785455 41.472 
L 250.589091 41.472 
L 252.392727 41.472 
L 254.196364 41.472 
L 256 41.472 
L 257.803636 41.472 
L 259.607273 41.472 
L 261.410909 41.472 
L 263.214545 41.472 
L 265.018182 41.472 
L 266.821818 41.472 
L 268.625455 41.472 
L 270.429091 41.472 
L 272.232727 41.472 
L 274.036364 41.472 
L 275.84 41.472 
L 277.643636 41.472 
L 279.447273 41.472 
L 281.250909 41.472 
L 283.054545 41.472 
L 284.858182 41.472 
L 286.661818 41.472 
L 288.465455 41.472 
L 290.269091 41.472 
L 292.072727 41.472 
L 293.876364 41.472 
L 295.68 41.472 
L 297.483636 41.472 
L 299.287273 41.472 
L 301.090909 41.472 
L 302.894545 41.472 
L 304.698182 41.472 
L 306.501818 41.472 
L 308.305455 41.472 
L 310.109091 41.472 
L 311.912727 41.472 
L 313.716364 41.472 
L 315.52 41.472 
L 317.323636 41.472 
L 319.127273 41.472 
L 320.930909 41.472 
L 322.734545 41.472 
L 324.538182 41.472 
L 326.341818 41.472 
L 328.145455 41.472 
L 329.949091 41.472 
L 331.752727 41.472 
L 333.556364 41.472 
L 335.36 41.472 
L 337.163636 41.472 
L 338.967273 41.472 
L 340.770909 41.472 
L 342.574545 41.472 
L 344.378182 41.472 
L 346.181818 41.472 
L 347.985455 41.472 
L 349.789091 41.472 
L 351.592727 41.472 
L 353.396364 41.472 
L 355.2 41.472 
L 357.003636 41.472 
L 358.807273 41.472 
L 360.610909 41.472 
L 362.414545 41.472 
L 364.218182 41.472 
L 366.021818 41.472 
L 367.825455 41.472 
L 369.629091 41.472 
L 371.432727 41.472 
L 373.236364 41.472 
L 375.04 41.472 
L 376.843636 41.472 
L 378.647273 41.472 
L 380.450909 41.472 
L 382.254545 41.472 
L 384.058182 41.472 
L 385.861818 41.472 
L 387.665455 41.472 
L 389.469091 41.472 
L 391.272727 41.472 
L 393.076364 41.472 
L 394.88 41.472 
L 396.683636 41.472 
L 398.487273 41.472 
L 400.290909 41.472 
L 402.094545 41.472 
L 403.898182 41.472 
L 405.701818 41.472 
L 407.505455 41.472 
L 409.309091 41.472 
L 411.112727 41.472 
L 412.916364 41.472 
L 414.72 41.472 
L 414.72 44.16 
L 414.72 46.848 
L 414.72 49.536 
L 414.72 52.224 
L 414.72 54.912 
L 414.72 57.6 
L 414.72 60.288 
L 414.72 62.976 
L 414.72 65.664 
L 414.72 68.352 
L 414.72 71.04 
L 414.72 73.728 
L 414.72 76.416 
L 414.72 79.104 
L 414.72 81.792 
L 414.72 84.48 
L 414.72 87.168 
L 414.72 89.856 
L 414.72 92.544 
L 414.72 95.232 
L 414.72 97.92 
L 414.72 100.608 
L 414.72 103.296 
L 414.72 105.984 
L 414.72 108.672 
L 414.72 111.36 
L 414.72 114.048 
L 414.72 116.736 
L 414.72 119.424 
L 414.72 122.112 
L 414.72 124.8 
L 414.72 127.488 
L 414.72 130.176 
L 414.72 132.864 
L 414.72 135.552 
L 414.72 138.24 
L 414.72 140.928 
L 414.72 143.616 
L 414.72 146.304 
L 414.72 148.992 
L 414.72 151.68 
L 414.72 154.368 
L 414.72 157.056 
L 414.72 159.744 
L 414.72 162.432 
L 414.72 165.12 
L 414.72 167.808 
L 414.72 170.496 
L 414.72 173.184 
L 414.72 175.872 
L 414.72 178.56 
L 414.72 181.248 
L 414.72 183.936 
L 414.72 186.624 
L 414.72 189.312 
L 414.72 192 
L 414.72 194.688 
L 414.72 197.376 
L 414.72 200.064 
L 414.72 202.752 
L 414.72 205.44 
L 414.72 208.128 
L 414.72 210.816 
L 414.72 213.504 
L 414.72 216.192 
L 414.72 218.88 
L 414.72 221.568 
L 414.72 224.256 
L 414.72 226.944 
L 414.72 229.632 
L 414.72 232.32 
L 414.72 235.008 
L 414.72 237.696 
L 414.72 240.384 
L 414.72 243.072 
L 414.72 245.76 
L 414.72 248.448 
L 414.72 251.136 
L 414.72 253.824 
L 414.72 256.512 
L 414.72 259.2 
L 414.72 261.888 
L 414.72 264.576 
L 414.72 267.264 
L 414.72 269.952 
L 414.72 272.64 
L 414.72 275.328 
L 414.72 278.016 
L 414.72 280.704 
L 414.72 283.392 
L 414.72 286.08 
L 414.72 288.768 
L 414.72 291.456 
L 414.72 294.144 
L 414.72 296.832 
L 414.72 299.52 
L 414.72 302.208 
L 414.72 304.896 
L 414.72 307.584 
L 412.916364 307.584 
L 411.112727 307.584 
L 409.309091 307.584 
L 407.505455 307.584 
L 405.701818 307.584 
L 403.898182 307.584 
L 402.094545 307.584 
L 400.290909 307.584 
L 398.487273 307.584 
L 396.683636 307.584 
L 394.88 307.584 
L 393.076364 307.584 
L 391.272727 307.584 
L 389.469091 307.584 
L 387.665455 307.584 
L 385.861818 307.584 
L 384.058182 307.584 
L 382.254545 307.584 
L 380.450909 307.584 
L 378.647273 307.584 
L 376.843636 307.584 
L 375.04 307.584 
L 373.236364 307.584 
L 371.432727 307.584 
L 369.629091 307.584 
L 367.825455 307.584 
L 366.021818 307.584 
L 364.218182 307.584 
L 362.414545 307.584 
L 360.610909 307.584 
L 358.807273 307.584 
L 357.003636 307.584 
L 355.2 307.584 
L 353.396364 307.584 
L 351.592727 307.584 
L 349.789091 307.584 
L 347.985455 307.584 
L 346.181818 307.584 
L 344.378182 307.584 
L 342.574545 307.584 
L 340.770909 307.584 
L 338.967273 307.584 
L 337.163636 307.584 
L 335.36 307.584 
L 333.556364 307.584 
L 331.752727 307.584 
L 329.949091 307.584 
L 328.145455 307.584 
L 326.341818 307.584 
L 324.538182 307.584 
L 322.734545 307.584 
L 320.930909 307.584 
L 319.127273 307.584 
L 317.323636 307.584 
L 315.52 307.584 
L 313.716364 307.584 
L 311.912727 307.584 
L 310.109091 307.584 
L 308.305455 307.584 
L 306.501818 307.584 
L 304.698182 307.584 
L 302.894545 307.584 
L 301.090909 307.584 
L 299.287273 307.584 
L 297.483636 307.584 
L 295.68 307.584 
L 293.876364 307.584 
L 292.072727 307.584 
L 290.269091 307.584 
L 288.465455 307.584 
L 286.661818 307.584 
L 284.858182 307.584 
L 283.054545 307.584 
L 281.250909 307.584 
L 279.447273 307.584 
L 277.643636 307.584 
L 275.84 307.584 
L 274.036364 307.584 
L 272.232727 307.584 
L 270.429091 307.584 
L 268.625455 307.584 
L 266.821818 307.584 
L 265.018182 307.584 
L 263.214545 307.584 
L 261.410909 307.584 
L 259.607273 307.584 
L 257.803636 307.584 
L 256 307.584 
L 254.196364 307.584 
L 252.392727 307.584 
L 250.589091 307.584 
L 248.785455 307.584 
L 246.981818 307.584 
L 245.178182 307.584 
L 243.374545 307.584 
L 241.570909 307.584 
L 239.767273 307.584 
L 237.963636 307.584 
L 236.16 307.584 
z
" clip-path="url(#pc6a7c7d40d)" style="fill: url(#hdd32c033b7); fill-opacity: 0.5"/>
   </g>
   <g id="PathCollection_2">
    <path d="M 54.74304 304.896 
L 54.74304 302.208 
L 54.74304 299.52 
L 54.74304 296.832 
L 54.74304 294.144 
L 54.74304 291.456 
L 54.74304 288.768 
L 54.74304 286.08 
L 54.74304 283.392 
L 54.74304 280.704 
L 54.74304 278.016 
L 54.74304 275.328 
L 54.74304 272.64 
L 54.74304 269.952 
L 54.74304 267.264 
L 54.74304 264.576 
L 54.74304 261.888 
L 54.74304 259.2 
L 54.74304 256.512 
L 54.74304 253.824 
L 54.74304 251.136 
L 54.74304 248.448 
L 54.74304 245.76 
L 54.74304 243.072 
L 54.74304 240.384 
L 54.74304 237.696 
L 54.74304 235.008 
L 54.74304 232.32 
L 54.74304 229.632 
L 54.74304 226.944 
L 54.74304 224.256 
L 54.74304 221.568 
L 54.74304 218.88 
L 54.74304 216.192 
L 54.74304 213.504 
L 54.74304 210.816 
L 54.74304 208.128 
L 54.74304 205.44 
L 54.74304 202.752 
L 54.74304 200.064 
L 54.74304 197.376 
L 54.74304 194.688 
L 54.74304 192 
L 54.74304 189.312 
L 54.74304 188.989575 
L 56.575535 188.99317 
L 58.408029 188.99337 
L 60.240524 188.990177 
L 62.073018 188.983586 
L 63.905513 188.973588 
L 65.738007 188.960168 
L 67.570502 188.943309 
L 69.402996 188.922985 
L 71.235491 188.899168 
L 73.067985 188.871824 
L 74.90048 188.840914 
L 76.732975 188.806393 
L 78.565469 188.768211 
L 80.397964 188.72631 
L 82.230458 188.680631 
L 84.062953 188.631103 
L 85.895447 188.577651 
L 87.727942 188.520195 
L 89.560436 188.458645 
L 91.392931 188.392905 
L 93.225425 188.322869 
L 95.05792 188.248425 
L 96.890415 188.169451 
L 98.722909 188.085816 
L 100.555404 187.997377 
L 102.387898 187.903982 
L 104.220393 187.805468 
L 106.052887 187.701659 
L 107.885382 187.592364 
L 109.717876 187.477381 
L 111.550371 187.356491 
L 113.382865 187.229458 
L 115.21536 187.096031 
L 117.047855 186.955936 
L 118.880349 186.808882 
L 120.712844 186.654554 
L 121.061636 186.624 
L 122.545338 186.515939 
L 124.377833 186.376297 
L 126.210327 186.229903 
L 128.042822 186.076421 
L 129.875316 185.915489 
L 131.707811 185.746714 
L 133.540305 185.569671 
L 135.3728 185.383898 
L 137.205295 185.188897 
L 139.037789 184.984122 
L 140.870284 184.768981 
L 142.702778 184.542831 
L 144.535273 184.304965 
L 146.367767 184.054614 
L 147.200138 183.936 
L 148.200262 183.816696 
L 150.032756 183.58837 
L 151.865251 183.347843 
L 153.697745 183.094231 
L 155.53024 182.82656 
L 157.362735 182.543755 
L 159.195229 182.244621 
L 161.027724 181.927835 
L 162.860218 181.59192 
L 164.628624 181.248 
L 164.692713 181.237495 
L 166.525207 180.925755 
L 168.357702 180.594375 
L 170.190196 180.241518 
L 172.022691 179.865106 
L 173.855185 179.462787 
L 175.68768 179.031885 
L 177.520175 178.569345 
L 177.555714 178.56 
L 179.352669 178.158739 
L 181.185164 177.718719 
L 183.017658 177.24395 
L 184.850153 176.730154 
L 186.682647 176.172336 
L 187.606982 175.872 
L 188.515142 175.619318 
L 190.347636 175.074344 
L 192.180131 174.477869 
L 194.012625 173.822092 
L 195.635924 173.184 
L 195.84512 173.112933 
L 197.677615 172.452556 
L 199.510109 171.717693 
L 201.342604 170.89457 
L 202.157119 170.496 
L 203.175098 170.060489 
L 205.007593 169.19607 
L 206.840087 168.208782 
L 207.516813 167.808 
L 208.672582 167.201641 
L 210.505076 166.114906 
L 211.958458 165.12 
L 212.337571 164.887106 
L 214.170065 163.637425 
L 215.663225 162.432 
L 216.00256 162.182105 
L 217.835055 160.65871 
L 218.769896 159.744 
L 219.667549 158.924525 
L 221.379444 157.056 
L 221.500044 156.931157 
L 223.332538 154.725792 
L 223.585659 154.368 
L 225.165033 152.153164 
L 225.451426 151.68 
L 226.997527 149.052763 
L 227.028181 148.992 
L 228.376833 146.304 
L 228.830022 145.33139 
L 229.523679 143.616 
L 230.48554 140.928 
L 230.662516 140.415194 
L 231.328163 138.24 
L 232.028659 135.552 
L 232.495011 133.479535 
L 232.625266 132.864 
L 233.16492 130.176 
L 233.603064 127.488 
L 233.963509 124.8 
L 234.26584 122.112 
L 234.327505 121.552541 
L 234.605675 119.424 
L 234.897802 116.736 
L 235.129308 114.048 
L 235.312772 111.36 
L 235.458165 108.672 
L 235.573386 105.984 
L 235.664696 103.296 
L 235.737058 100.608 
L 235.794404 97.92 
L 235.839849 95.232 
L 235.875864 92.544 
L 235.904405 89.856 
L 235.927024 87.168 
L 235.944948 84.48 
L 235.959153 81.792 
L 235.970411 79.104 
L 235.979332 76.416 
L 235.986402 73.728 
L 235.992004 71.04 
L 235.996444 68.352 
L 235.999963 65.664 
L 236.002752 62.976 
L 236.004961 60.288 
L 236.006713 57.6 
L 236.0081 54.912 
L 236.0092 52.224 
L 236.010072 49.536 
L 236.010763 46.848 
L 236.01131 44.16 
L 236.011744 41.472 
L 236.16 41.472 
L 236.16 44.16 
L 236.16 46.848 
L 236.16 49.536 
L 236.16 52.224 
L 236.16 54.912 
L 236.16 57.6 
L 236.16 60.288 
L 236.16 62.976 
L 236.16 65.664 
L 236.16 68.352 
L 236.16 71.04 
L 236.16 73.728 
L 236.16 76.416 
L 236.16 79.104 
L 236.16 81.792 
L 236.16 84.48 
L 236.16 87.168 
L 236.16 89.856 
L 236.16 92.544 
L 236.16 95.232 
L 236.16 97.92 
L 236.16 100.608 
L 236.16 103.296 
L 236.16 105.984 
L 236.16 108.672 
L 236.16 111.36 
L 236.16 114.048 
L 236.16 116.736 
L 236.16 119.424 
L 236.16 122.112 
L 236.16 124.8 
L 236.16 127.488 
L 236.16 130.176 
L 236.16 132.864 
L 236.16 135.552 
L 236.16 138.24 
L 236.16 140.928 
L 236.16 143.616 
L 236.16 146.304 
L 236.16 148.992 
L 236.16 151.68 
L 236.16 154.368 
L 236.16 157.056 
L 236.16 159.744 
L 236.16 162.432 
L 236.16 165.12 
L 236.16 167.808 
L 236.16 170.496 
L 236.16 173.184 
L 236.16 175.872 
L 236.16 178.56 
L 236.16 181.248 
L 236.16 183.936 
L 236.16 186.624 
L 236.16 189.312 
L 236.16 192 
L 236.16 194.688 
L 236.16 197.376 
L 236.16 200.064 
L 236.16 202.752 
L 236.16 205.44 
L 236.16 208.128 
L 236.16 210.816 
L 236.16 213.504 
L 236.16 216.192 
L 236.16 218.88 
L 236.16 221.568 
L 236.16 224.256 
L 236.16 226.944 
L 236.16 229.632 
L 236.16 232.32 
L 236.16 235.008 
L 236.16 237.696 
L 236.16 240.384 
L 236.16 243.072 
L 236.16 245.76 
L 236.16 248.448 
L 236.16 251.136 
L 236.16 253.824 
L 236.16 256.512 
L 236.16 259.2 
L 236.16 261.888 
L 236.16 264.576 
L 236.16 267.264 
L 236.16 269.952 
L 236.16 272.64 
L 236.16 275.328 
L 236.16 278.016 
L 236.16 280.704 
L 236.16 283.392 
L 236.16 286.08 
L 236.16 288.768 
L 236.16 291.456 
L 236.16 294.144 
L 236.16 296.832 
L 236.16 299.52 
L 236.16 302.208 
L 236.16 304.896 
L 236.16 307.584 
L 234.327505 307.584 
L 232.495011 307.584 
L 230.662516 307.584 
L 228.830022 307.584 
L 226.997527 307.584 
L 225.165033 307.584 
L 223.332538 307.584 
L 221.500044 307.584 
L 219.667549 307.584 
L 217.835055 307.584 
L 216.00256 307.584 
L 214.170065 307.584 
L 212.337571 307.584 
L 210.505076 307.584 
L 208.672582 307.584 
L 206.840087 307.584 
L 205.007593 307.584 
L 203.175098 307.584 
L 201.342604 307.584 
L 199.510109 307.584 
L 197.677615 307.584 
L 195.84512 307.584 
L 194.012625 307.584 
L 192.180131 307.584 
L 190.347636 307.584 
L 188.515142 307.584 
L 186.682647 307.584 
L 184.850153 307.584 
L 183.017658 307.584 
L 181.185164 307.584 
L 179.352669 307.584 
L 177.520175 307.584 
L 175.68768 307.584 
L 173.855185 307.584 
L 172.022691 307.584 
L 170.190196 307.584 
L 168.357702 307.584 
L 166.525207 307.584 
L 164.692713 307.584 
L 162.860218 307.584 
L 161.027724 307.584 
L 159.195229 307.584 
L 157.362735 307.584 
L 155.53024 307.584 
L 153.697745 307.584 
L 151.865251 307.584 
L 150.032756 307.584 
L 148.200262 307.584 
L 146.367767 307.584 
L 144.535273 307.584 
L 142.702778 307.584 
L 140.870284 307.584 
L 139.037789 307.584 
L 137.205295 307.584 
L 135.3728 307.584 
L 133.540305 307.584 
L 131.707811 307.584 
L 129.875316 307.584 
L 128.042822 307.584 
L 126.210327 307.584 
L 124.377833 307.584 
L 122.545338 307.584 
L 120.712844 307.584 
L 118.880349 307.584 
L 117.047855 307.584 
L 115.21536 307.584 
L 113.382865 307.584 
L 111.550371 307.584 
L 109.717876 307.584 
L 107.885382 307.584 
L 106.052887 307.584 
L 104.220393 307.584 
L 102.387898 307.584 
L 100.555404 307.584 
L 98.722909 307.584 
L 96.890415 307.584 
L 95.05792 307.584 
L 93.225425 307.584 
L 91.392931 307.584 
L 89.560436 307.584 
L 87.727942 307.584 
L 85.895447 307.584 
L 84.062953 307.584 
L 82.230458 307.584 
L 80.397964 307.584 
L 78.565469 307.584 
L 76.732975 307.584 
L 74.90048 307.584 
L 73.067985 307.584 
L 71.235491 307.584 
L 69.402996 307.584 
L 67.570502 307.584 
L 65.738007 307.584 
L 63.905513 307.584 
L 62.073018 307.584 
L 60.240524 307.584 
L 58.408029 307.584 
L 56.575535 307.584 
L 54.74304 307.584 
z
" clip-path="url(#pc6a7c7d40d)" style="fill: #90ee90"/>
   </g>
   <g id="PathCollection_3">
    <path d="M 54.74304 304.896 
L 54.74304 302.208 
L 54.74304 299.52 
L 54.74304 296.832 
L 54.74304 294.144 
L 54.74304 291.456 
L 54.74304 288.768 
L 54.74304 286.08 
L 54.74304 283.392 
L 54.74304 280.704 
L 54.74304 278.016 
L 54.74304 275.328 
L 54.74304 272.64 
L 54.74304 269.952 
L 54.74304 267.264 
L 54.74304 264.576 
L 54.74304 261.888 
L 54.74304 259.2 
L 54.74304 256.512 
L 54.74304 253.824 
L 54.74304 251.136 
L 54.74304 248.448 
L 54.74304 245.76 
L 54.74304 243.072 
L 54.74304 240.384 
L 54.74304 237.696 
L 54.74304 235.008 
L 54.74304 232.32 
L 54.74304 229.632 
L 54.74304 226.944 
L 54.74304 224.256 
L 54.74304 221.568 
L 54.74304 218.88 
L 54.74304 216.192 
L 54.74304 213.504 
L 54.74304 210.816 
L 54.74304 208.128 
L 54.74304 205.44 
L 54.74304 204.667367 
L 56.575535 204.668606 
L 58.408029 204.668675 
L 60.240524 204.667574 
L 62.073018 204.665302 
L 63.905513 204.661857 
L 65.738007 204.657235 
L 67.570502 204.651433 
L 69.402996 204.644446 
L 71.235491 204.636266 
L 73.067985 204.626887 
L 74.90048 204.616301 
L 76.732975 204.604496 
L 78.565469 204.591464 
L 80.397964 204.577191 
L 82.230458 204.561664 
L 84.062953 204.544869 
L 85.895447 204.52679 
L 87.727942 204.50741 
L 89.560436 204.486709 
L 91.392931 204.464669 
L 93.225425 204.441267 
L 95.05792 204.41648 
L 96.890415 204.390283 
L 98.722909 204.362651 
L 100.555404 204.333553 
L 102.387898 204.302961 
L 104.220393 204.270842 
L 106.052887 204.237161 
L 107.885382 204.201882 
L 109.717876 204.164966 
L 111.550371 204.126372 
L 113.382865 204.086055 
L 115.21536 204.043969 
L 117.047855 204.000063 
L 118.880349 203.954285 
L 120.712844 203.906579 
L 122.545338 203.856884 
L 124.377833 203.805137 
L 126.210327 203.751269 
L 128.042822 203.695209 
L 129.875316 203.636879 
L 131.707811 203.576197 
L 133.540305 203.513076 
L 135.3728 203.447421 
L 137.205295 203.379133 
L 139.037789 203.308104 
L 140.870284 203.234221 
L 142.702778 203.15736 
L 144.535273 203.077389 
L 146.367767 202.994168 
L 148.200262 202.907545 
L 150.032756 202.817355 
L 151.310194 202.752 
L 151.865251 202.72849 
L 153.697745 202.648006 
L 155.53024 202.564163 
L 157.362735 202.476782 
L 159.195229 202.385671 
L 161.027724 202.290618 
L 162.860218 202.191397 
L 164.692713 202.087758 
L 166.525207 201.979429 
L 168.357702 201.866112 
L 170.190196 201.747481 
L 172.022691 201.623177 
L 173.855185 201.492804 
L 175.68768 201.355923 
L 177.520175 201.212049 
L 179.352669 201.060643 
L 181.185164 200.901101 
L 183.017658 200.732748 
L 184.850153 200.554827 
L 186.682647 200.36648 
L 188.515142 200.166738 
L 189.408697 200.064 
L 190.347636 199.973932 
L 192.180131 199.788203 
L 194.012625 199.590202 
L 195.84512 199.37858 
L 197.677615 199.151771 
L 199.510109 198.907938 
L 201.342604 198.64491 
L 203.175098 198.360101 
L 205.007593 198.050402 
L 206.840087 197.712035 
L 208.500819 197.376 
L 208.672582 197.34668 
L 210.505076 197.009152 
L 212.337571 196.634305 
L 214.170065 196.214639 
L 216.00256 195.740327 
L 217.835055 195.1982 
L 219.335364 194.688 
L 219.667549 194.59104 
L 221.500044 193.983829 
L 223.332538 193.256144 
L 225.165033 192.360312 
L 225.77291 192 
L 226.997527 191.356981 
L 228.830022 190.102144 
L 229.684284 189.312 
L 230.662516 188.474037 
L 232.109046 186.624 
L 232.495011 186.143502 
L 233.559286 183.936 
L 234.327505 182.186887 
L 234.451137 181.248 
L 234.775333 178.56 
L 235.032253 175.872 
L 235.235858 173.184 
L 235.397211 170.496 
L 235.525081 167.808 
L 235.626416 165.12 
L 235.706722 162.432 
L 235.770363 159.744 
L 235.820797 157.056 
L 235.860766 154.368 
L 235.89244 151.68 
L 235.917541 148.992 
L 235.937434 146.304 
L 235.953198 143.616 
L 235.965691 140.928 
L 235.975592 138.24 
L 235.983438 135.552 
L 235.989655 132.864 
L 235.994583 130.176 
L 235.998488 127.488 
L 236.001582 124.8 
L 236.004035 122.112 
L 236.005978 119.424 
L 236.007519 116.736 
L 236.008739 114.048 
L 236.009706 111.36 
L 236.010473 108.672 
L 236.011081 105.984 
L 236.011562 103.296 
L 236.011943 100.608 
L 236.012246 97.92 
L 236.012485 95.232 
L 236.012675 92.544 
L 236.012826 89.856 
L 236.012945 87.168 
L 236.01304 84.48 
L 236.013114 81.792 
L 236.013174 79.104 
L 236.013221 76.416 
L 236.013258 73.728 
L 236.013288 71.04 
L 236.013311 68.352 
L 236.01333 65.664 
L 236.013344 62.976 
L 236.013356 60.288 
L 236.013365 57.6 
L 236.013372 54.912 
L 236.013378 52.224 
L 236.013383 49.536 
L 236.013387 46.848 
L 236.013389 44.16 
L 236.013392 41.472 
L 236.16 41.472 
L 236.16 44.16 
L 236.16 46.848 
L 236.16 49.536 
L 236.16 52.224 
L 236.16 54.912 
L 236.16 57.6 
L 236.16 60.288 
L 236.16 62.976 
L 236.16 65.664 
L 236.16 68.352 
L 236.16 71.04 
L 236.16 73.728 
L 236.16 76.416 
L 236.16 79.104 
L 236.16 81.792 
L 236.16 84.48 
L 236.16 87.168 
L 236.16 89.856 
L 236.16 92.544 
L 236.16 95.232 
L 236.16 97.92 
L 236.16 100.608 
L 236.16 103.296 
L 236.16 105.984 
L 236.16 108.672 
L 236.16 111.36 
L 236.16 114.048 
L 236.16 116.736 
L 236.16 119.424 
L 236.16 122.112 
L 236.16 124.8 
L 236.16 127.488 
L 236.16 130.176 
L 236.16 132.864 
L 236.16 135.552 
L 236.16 138.24 
L 236.16 140.928 
L 236.16 143.616 
L 236.16 146.304 
L 236.16 148.992 
L 236.16 151.68 
L 236.16 154.368 
L 236.16 157.056 
L 236.16 159.744 
L 236.16 162.432 
L 236.16 165.12 
L 236.16 167.808 
L 236.16 170.496 
L 236.16 173.184 
L 236.16 175.872 
L 236.16 178.56 
L 236.16 181.248 
L 236.16 183.936 
L 236.16 186.624 
L 236.16 189.312 
L 236.16 192 
L 236.16 194.688 
L 236.16 197.376 
L 236.16 200.064 
L 236.16 202.752 
L 236.16 205.44 
L 236.16 208.128 
L 236.16 210.816 
L 236.16 213.504 
L 236.16 216.192 
L 236.16 218.88 
L 236.16 221.568 
L 236.16 224.256 
L 236.16 226.944 
L 236.16 229.632 
L 236.16 232.32 
L 236.16 235.008 
L 236.16 237.696 
L 236.16 240.384 
L 236.16 243.072 
L 236.16 245.76 
L 236.16 248.448 
L 236.16 251.136 
L 236.16 253.824 
L 236.16 256.512 
L 236.16 259.2 
L 236.16 261.888 
L 236.16 264.576 
L 236.16 267.264 
L 236.16 269.952 
L 236.16 272.64 
L 236.16 275.328 
L 236.16 278.016 
L 236.16 280.704 
L 236.16 283.392 
L 236.16 286.08 
L 236.16 288.768 
L 236.16 291.456 
L 236.16 294.144 
L 236.16 296.832 
L 236.16 299.52 
L 236.16 302.208 
L 236.16 304.896 
L 236.16 307.584 
L 234.327505 307.584 
L 232.495011 307.584 
L 230.662516 307.584 
L 228.830022 307.584 
L 226.997527 307.584 
L 225.165033 307.584 
L 223.332538 307.584 
L 221.500044 307.584 
L 219.667549 307.584 
L 217.835055 307.584 
L 216.00256 307.584 
L 214.170065 307.584 
L 212.337571 307.584 
L 210.505076 307.584 
L 208.672582 307.584 
L 206.840087 307.584 
L 205.007593 307.584 
L 203.175098 307.584 
L 201.342604 307.584 
L 199.510109 307.584 
L 197.677615 307.584 
L 195.84512 307.584 
L 194.012625 307.584 
L 192.180131 307.584 
L 190.347636 307.584 
L 188.515142 307.584 
L 186.682647 307.584 
L 184.850153 307.584 
L 183.017658 307.584 
L 181.185164 307.584 
L 179.352669 307.584 
L 177.520175 307.584 
L 175.68768 307.584 
L 173.855185 307.584 
L 172.022691 307.584 
L 170.190196 307.584 
L 168.357702 307.584 
L 166.525207 307.584 
L 164.692713 307.584 
L 162.860218 307.584 
L 161.027724 307.584 
L 159.195229 307.584 
L 157.362735 307.584 
L 155.53024 307.584 
L 153.697745 307.584 
L 151.865251 307.584 
L 150.032756 307.584 
L 148.200262 307.584 
L 146.367767 307.584 
L 144.535273 307.584 
L 142.702778 307.584 
L 140.870284 307.584 
L 139.037789 307.584 
L 137.205295 307.584 
L 135.3728 307.584 
L 133.540305 307.584 
L 131.707811 307.584 
L 129.875316 307.584 
L 128.042822 307.584 
L 126.210327 307.584 
L 124.377833 307.584 
L 122.545338 307.584 
L 120.712844 307.584 
L 118.880349 307.584 
L 117.047855 307.584 
L 115.21536 307.584 
L 113.382865 307.584 
L 111.550371 307.584 
L 109.717876 307.584 
L 107.885382 307.584 
L 106.052887 307.584 
L 104.220393 307.584 
L 102.387898 307.584 
L 100.555404 307.584 
L 98.722909 307.584 
L 96.890415 307.584 
L 95.05792 307.584 
L 93.225425 307.584 
L 91.392931 307.584 
L 89.560436 307.584 
L 87.727942 307.584 
L 85.895447 307.584 
L 84.062953 307.584 
L 82.230458 307.584 
L 80.397964 307.584 
L 78.565469 307.584 
L 76.732975 307.584 
L 74.90048 307.584 
L 73.067985 307.584 
L 71.235491 307.584 
L 69.402996 307.584 
L 67.570502 307.584 
L 65.738007 307.584 
L 63.905513 307.584 
L 62.073018 307.584 
L 60.240524 307.584 
L 58.408029 307.584 
L 56.575535 307.584 
L 54.74304 307.584 
z
" clip-path="url(#pc6a7c7d40d)" style="fill: #f08080"/>
   </g>
   <g id="PathCollection_4">
    <path d="M 85.895447 305.402064 
L 86.211892 304.896 
L 87.727942 302.422582 
L 87.869333 302.208 
L 89.560436 299.621822 
L 89.630923 299.52 
L 91.392931 296.983166 
L 91.502576 296.832 
L 93.225425 294.487674 
L 93.485979 294.144 
L 95.05792 292.115316 
L 95.579238 291.456 
L 96.890415 289.846012 
L 97.77761 288.768 
L 98.722909 287.660442 
L 100.074244 286.08 
L 100.555404 285.540653 
L 102.387898 283.48735 
L 102.475375 283.392 
L 104.220393 281.591139 
L 105.061895 280.704 
L 106.052887 279.719119 
L 107.720984 278.016 
L 107.885382 277.858354 
L 109.717876 276.141065 
L 110.562634 275.328 
L 111.550371 274.443041 
L 113.382865 272.74011 
L 113.492685 272.64 
L 115.21536 271.189423 
L 116.609006 269.952 
L 117.047855 269.592721 
L 118.880349 268.093082 
L 119.86033 267.264 
L 120.712844 266.603049 
L 122.545338 265.146053 
L 123.250041 264.576 
L 124.377833 263.744372 
L 126.210327 262.337609 
L 126.789802 261.888 
L 128.042822 261.005791 
L 129.875316 259.655095 
L 130.485111 259.2 
L 131.707811 258.375185 
L 133.540305 257.084731 
L 134.336108 256.512 
L 135.3728 255.839843 
L 137.205295 254.612297 
L 138.338514 253.824 
L 139.037789 253.386997 
L 140.870284 252.223699 
L 142.484618 251.136 
L 142.702778 251.004252 
L 144.535273 249.905403 
L 146.367767 248.72965 
L 146.804277 248.448 
L 148.200262 247.644751 
L 150.032756 246.540011 
L 151.275262 245.76 
L 151.865251 245.430173 
L 153.697745 244.394499 
L 155.53024 243.289813 
L 155.890372 243.072 
L 157.362735 242.28211 
L 159.195229 241.250983 
L 160.663322 240.384 
L 161.027724 240.193245 
L 162.860218 239.232093 
L 164.692713 238.210235 
L 165.592112 237.696 
L 166.525207 237.224541 
L 168.357702 236.275294 
L 170.190196 235.266881 
L 170.656627 235.008 
L 172.022691 234.339717 
L 173.855185 233.405634 
L 175.68768 232.414073 
L 175.861817 232.32 
L 177.520175 231.532088 
L 179.352669 230.615575 
L 181.185164 229.643214 
L 181.206426 229.632 
L 183.017658 228.793394 
L 184.850153 227.895653 
L 186.681486 226.944 
L 186.682647 226.94347 
L 188.515142 226.11313 
L 190.347636 225.233622 
L 192.180131 224.30011 
L 192.266761 224.256 
L 194.012625 223.477355 
L 195.84512 222.612949 
L 197.677615 221.693719 
L 197.926216 221.568 
L 199.510109 220.866615 
L 201.342604 220.010128 
L 203.175098 219.095537 
L 203.598781 218.88 
L 205.007593 218.252077 
L 206.840087 217.389514 
L 208.672582 216.46102 
L 209.187373 216.192 
L 210.505076 215.587559 
L 212.337571 214.692188 
L 214.170065 213.713837 
L 214.547349 213.504 
L 216.00256 212.790586 
L 217.835055 211.807804 
L 219.492328 210.816 
L 219.667549 210.722933 
L 221.500044 209.687416 
L 223.332538 208.485249 
L 223.821949 208.128 
L 225.165033 207.243863 
L 226.997527 205.794641 
L 227.379048 205.44 
L 228.830022 204.190739 
L 230.11725 202.752 
L 230.662516 202.172133 
L 232.11093 200.064 
L 232.495011 199.5059 
L 233.452736 197.376 
L 234.327505 195.186688 
L 234.393335 194.688 
L 234.729526 192 
L 234.995952 189.312 
L 235.20709 186.624 
L 235.374413 183.936 
L 235.507014 181.248 
L 235.612098 178.56 
L 235.695375 175.872 
L 235.761371 173.184 
L 235.813671 170.496 
L 235.855118 167.808 
L 235.887965 165.12 
L 235.913995 162.432 
L 235.934623 159.744 
L 235.950971 157.056 
L 235.963926 154.368 
L 235.974193 151.68 
L 235.982329 148.992 
L 235.988777 146.304 
L 235.993887 143.616 
L 235.997936 140.928 
L 236.001145 138.24 
L 236.003688 135.552 
L 236.005704 132.864 
L 236.007301 130.176 
L 236.008567 127.488 
L 236.00957 124.8 
L 236.010365 122.112 
L 236.010995 119.424 
L 236.011494 116.736 
L 236.01189 114.048 
L 236.012203 111.36 
L 236.012452 108.672 
L 236.012648 105.984 
L 236.012805 103.296 
L 236.012928 100.608 
L 236.013026 97.92 
L 236.013104 95.232 
L 236.013165 92.544 
L 236.013214 89.856 
L 236.013253 87.168 
L 236.013283 84.48 
L 236.013308 81.792 
L 236.013327 79.104 
L 236.013342 76.416 
L 236.013354 73.728 
L 236.013364 71.04 
L 236.013371 68.352 
L 236.013377 65.664 
L 236.013382 62.976 
L 236.013386 60.288 
L 236.013389 57.6 
L 236.013391 54.912 
L 236.013393 52.224 
L 236.013395 49.536 
L 236.013396 46.848 
L 236.013397 44.16 
L 236.013398 41.472 
L 236.16 41.472 
L 236.16 44.16 
L 236.16 46.848 
L 236.16 49.536 
L 236.16 52.224 
L 236.16 54.912 
L 236.16 57.6 
L 236.16 60.288 
L 236.16 62.976 
L 236.16 65.664 
L 236.16 68.352 
L 236.16 71.04 
L 236.16 73.728 
L 236.16 76.416 
L 236.16 79.104 
L 236.16 81.792 
L 236.16 84.48 
L 236.16 87.168 
L 236.16 89.856 
L 236.16 92.544 
L 236.16 95.232 
L 236.16 97.92 
L 236.16 100.608 
L 236.16 103.296 
L 236.16 105.984 
L 236.16 108.672 
L 236.16 111.36 
L 236.16 114.048 
L 236.16 116.736 
L 236.16 119.424 
L 236.16 122.112 
L 236.16 124.8 
L 236.16 127.488 
L 236.16 130.176 
L 236.16 132.864 
L 236.16 135.552 
L 236.16 138.24 
L 236.16 140.928 
L 236.16 143.616 
L 236.16 146.304 
L 236.16 148.992 
L 236.16 151.68 
L 236.16 154.368 
L 236.16 157.056 
L 236.16 159.744 
L 236.16 162.432 
L 236.16 165.12 
L 236.16 167.808 
L 236.16 170.496 
L 236.16 173.184 
L 236.16 175.872 
L 236.16 178.56 
L 236.16 181.248 
L 236.16 183.936 
L 236.16 186.624 
L 236.16 189.312 
L 236.16 192 
L 236.16 194.688 
L 236.16 197.376 
L 236.16 200.064 
L 236.16 202.752 
L 236.16 205.44 
L 236.16 208.128 
L 236.16 210.816 
L 236.16 213.504 
L 236.16 216.192 
L 236.16 218.88 
L 236.16 221.568 
L 236.16 224.256 
L 236.16 226.944 
L 236.16 229.632 
L 236.16 232.32 
L 236.16 235.008 
L 236.16 237.696 
L 236.16 240.384 
L 236.16 243.072 
L 236.16 245.76 
L 236.16 248.448 
L 236.16 251.136 
L 236.16 253.824 
L 236.16 256.512 
L 236.16 259.2 
L 236.16 261.888 
L 236.16 264.576 
L 236.16 267.264 
L 236.16 269.952 
L 236.16 272.64 
L 236.16 275.328 
L 236.16 278.016 
L 236.16 280.704 
L 236.16 283.392 
L 236.16 286.08 
L 236.16 288.768 
L 236.16 291.456 
L 236.16 294.144 
L 236.16 296.832 
L 236.16 299.52 
L 236.16 302.208 
L 236.16 304.896 
L 236.16 307.584 
L 234.327505 307.584 
L 232.495011 307.584 
L 230.662516 307.584 
L 228.830022 307.584 
L 226.997527 307.584 
L 225.165033 307.584 
L 223.332538 307.584 
L 221.500044 307.584 
L 219.667549 307.584 
L 217.835055 307.584 
L 216.00256 307.584 
L 214.170065 307.584 
L 212.337571 307.584 
L 210.505076 307.584 
L 208.672582 307.584 
L 206.840087 307.584 
L 205.007593 307.584 
L 203.175098 307.584 
L 201.342604 307.584 
L 199.510109 307.584 
L 197.677615 307.584 
L 195.84512 307.584 
L 194.012625 307.584 
L 192.180131 307.584 
L 190.347636 307.584 
L 188.515142 307.584 
L 186.682647 307.584 
L 184.850153 307.584 
L 183.017658 307.584 
L 181.185164 307.584 
L 179.352669 307.584 
L 177.520175 307.584 
L 175.68768 307.584 
L 173.855185 307.584 
L 172.022691 307.584 
L 170.190196 307.584 
L 168.357702 307.584 
L 166.525207 307.584 
L 164.692713 307.584 
L 162.860218 307.584 
L 161.027724 307.584 
L 159.195229 307.584 
L 157.362735 307.584 
L 155.53024 307.584 
L 153.697745 307.584 
L 151.865251 307.584 
L 150.032756 307.584 
L 148.200262 307.584 
L 146.367767 307.584 
L 144.535273 307.584 
L 142.702778 307.584 
L 140.870284 307.584 
L 139.037789 307.584 
L 137.205295 307.584 
L 135.3728 307.584 
L 133.540305 307.584 
L 131.707811 307.584 
L 129.875316 307.584 
L 128.042822 307.584 
L 126.210327 307.584 
L 124.377833 307.584 
L 122.545338 307.584 
L 120.712844 307.584 
L 118.880349 307.584 
L 117.047855 307.584 
L 115.21536 307.584 
L 113.382865 307.584 
L 111.550371 307.584 
L 109.717876 307.584 
L 107.885382 307.584 
L 106.052887 307.584 
L 104.220393 307.584 
L 102.387898 307.584 
L 100.555404 307.584 
L 98.722909 307.584 
L 96.890415 307.584 
L 95.05792 307.584 
L 93.225425 307.584 
L 91.392931 307.584 
L 89.560436 307.584 
L 87.727942 307.584 
L 85.895447 307.584 
L 84.647973 307.584 
z
" clip-path="url(#pc6a7c7d40d)" style="fill: #b0c4de"/>
   </g>
   <g id="matplotlib.axis_1">
    <g id="xtick_1">
     <g id="line2d_1">
      <defs>
       <path id="me522bc3d09" d="M 0 0 
L 0 3.5 
" style="stroke: #000000; stroke-width: 0.8"/>
      </defs>
      <g>
       <use xlink:href="#me522bc3d09" x="57.6" y="307.584" style="stroke: #000000; stroke-width: 0.8"/>
      </g>
     </g>
     <g id="text_1">
      <!-- 0 -->
      <g transform="translate(54.41875 322.182437)scale(0.1 -0.1)">
       <defs>
        <path id="DejaVuSans-30" d="M 2034 4250 
Q 1547 4250 1301 3770 
Q 1056 3291 1056 2328 
Q 1056 1369 1301 889 
Q 1547 409 2034 409 
Q 2525 409 2770 889 
Q 3016 1369 3016 2328 
Q 3016 3291 2770 3770 
Q 2525 4250 2034 4250 
z
M 2034 4750 
Q 2819 4750 3233 4129 
Q 3647 3509 3647 2328 
Q 3647 1150 3233 529 
Q 2819 -91 2034 -91 
Q 1250 -91 836 529 
Q 422 1150 422 2328 
Q 422 3509 836 4129 
Q 1250 4750 2034 4750 
z
" transform="scale(0.015625)"/>
       </defs>
       <use xlink:href="#DejaVuSans-30"/>
      </g>
     </g>
    </g>
    <g id="xtick_2">
     <g id="line2d_2">
      <g>
       <use xlink:href="#me522bc3d09" x="114.7392" y="307.584" style="stroke: #000000; stroke-width: 0.8"/>
      </g>
     </g>
     <g id="text_2">
      <!-- 20 -->
      <g transform="translate(108.3767 322.182437)scale(0.1 -0.1)">
       <defs>
        <path id="DejaVuSans-32" d="M 1228 531 
L 3431 531 
L 3431 0 
L 469 0 
L 469 531 
Q 828 903 1448 1529 
Q 2069 2156 2228 2338 
Q 2531 2678 2651 2914 
Q 2772 3150 2772 3378 
Q 2772 3750 2511 3984 
Q 2250 4219 1831 4219 
Q 1534 4219 1204 4116 
Q 875 4013 500 3803 
L 500 4441 
Q 881 4594 1212 4672 
Q 1544 4750 1819 4750 
Q 2544 4750 2975 4387 
Q 3406 4025 3406 3419 
Q 3406 3131 3298 2873 
Q 3191 2616 2906 2266 
Q 2828 2175 2409 1742 
Q 1991 1309 1228 531 
z
" transform="scale(0.015625)"/>
       </defs>
       <use xlink:href="#DejaVuSans-32"/>
       <use xlink:href="#DejaVuSans-30" x="63.623047"/>
      </g>
     </g>
    </g>
    <g id="xtick_3">
     <g id="line2d_3">
      <g>
       <use xlink:href="#me522bc3d09" x="171.8784" y="307.584" style="stroke: #000000; stroke-width: 0.8"/>
      </g>
     </g>
     <g id="text_3">
      <!-- 40 -->
      <g transform="translate(165.5159 322.182437)scale(0.1 -0.1)">
       <defs>
        <path id="DejaVuSans-34" d="M 2419 4116 
L 825 1625 
L 2419 1625 
L 2419 4116 
z
M 2253 4666 
L 3047 4666 
L 3047 1625 
L 3713 1625 
L 3713 1100 
L 3047 1100 
L 3047 0 
L 2419 0 
L 2419 1100 
L 313 1100 
L 313 1709 
L 2253 4666 
z
" transform="scale(0.015625)"/>
       </defs>
       <use xlink:href="#DejaVuSans-34"/>
       <use xlink:href="#DejaVuSans-30" x="63.623047"/>
      </g>
     </g>
    </g>
    <g id="xtick_4">
     <g id="line2d_4">
      <g>
       <use xlink:href="#me522bc3d09" x="229.0176" y="307.584" style="stroke: #000000; stroke-width: 0.8"/>
      </g>
     </g>
     <g id="text_4">
      <!-- 60 -->
      <g transform="translate(222.6551 322.182437)scale(0.1 -0.1)">
       <defs>
        <path id="DejaVuSans-36" d="M 2113 2584 
Q 1688 2584 1439 2293 
Q 1191 2003 1191 1497 
Q 1191 994 1439 701 
Q 1688 409 2113 409 
Q 2538 409 2786 701 
Q 3034 994 3034 1497 
Q 3034 2003 2786 2293 
Q 2538 2584 2113 2584 
z
M 3366 4563 
L 3366 3988 
Q 3128 4100 2886 4159 
Q 2644 4219 2406 4219 
Q 1781 4219 1451 3797 
Q 1122 3375 1075 2522 
Q 1259 2794 1537 2939 
Q 1816 3084 2150 3084 
Q 2853 3084 3261 2657 
Q 3669 2231 3669 1497 
Q 3669 778 3244 343 
Q 2819 -91 2113 -91 
Q 1303 -91 875 529 
Q 447 1150 447 2328 
Q 447 3434 972 4092 
Q 1497 4750 2381 4750 
Q 2619 4750 2861 4703 
Q 3103 4656 3366 4563 
z
" transform="scale(0.015625)"/>
       </defs>
       <use xlink:href="#DejaVuSans-36"/>
       <use xlink:href="#DejaVuSans-30" x="63.623047"/>
      </g>
     </g>
    </g>
    <g id="xtick_5">
     <g id="line2d_5">
      <g>
       <use xlink:href="#me522bc3d09" x="286.1568" y="307.584" style="stroke: #000000; stroke-width: 0.8"/>
      </g>
     </g>
     <g id="text_5">
      <!-- 80 -->
      <g transform="translate(279.7943 322.182437)scale(0.1 -0.1)">
       <defs>
        <path id="DejaVuSans-38" d="M 2034 2216 
Q 1584 2216 1326 1975 
Q 1069 1734 1069 1313 
Q 1069 891 1326 650 
Q 1584 409 2034 409 
Q 2484 409 2743 651 
Q 3003 894 3003 1313 
Q 3003 1734 2745 1975 
Q 2488 2216 2034 2216 
z
M 1403 2484 
Q 997 2584 770 2862 
Q 544 3141 544 3541 
Q 544 4100 942 4425 
Q 1341 4750 2034 4750 
Q 2731 4750 3128 4425 
Q 3525 4100 3525 3541 
Q 3525 3141 3298 2862 
Q 3072 2584 2669 2484 
Q 3125 2378 3379 2068 
Q 3634 1759 3634 1313 
Q 3634 634 3220 271 
Q 2806 -91 2034 -91 
Q 1263 -91 848 271 
Q 434 634 434 1313 
Q 434 1759 690 2068 
Q 947 2378 1403 2484 
z
M 1172 3481 
Q 1172 3119 1398 2916 
Q 1625 2713 2034 2713 
Q 2441 2713 2670 2916 
Q 2900 3119 2900 3481 
Q 2900 3844 2670 4047 
Q 2441 4250 2034 4250 
Q 1625 4250 1398 4047 
Q 1172 3844 1172 3481 
z
" transform="scale(0.015625)"/>
       </defs>
       <use xlink:href="#DejaVuSans-38"/>
       <use xlink:href="#DejaVuSans-30" x="63.623047"/>
      </g>
     </g>
    </g>
    <g id="xtick_6">
     <g id="line2d_6">
      <g>
       <use xlink:href="#me522bc3d09" x="343.296" y="307.584" style="stroke: #000000; stroke-width: 0.8"/>
      </g>
     </g>
     <g id="text_6">
      <!-- 100 -->
      <g transform="translate(333.75225 322.182437)scale(0.1 -0.1)">
       <defs>
        <path id="DejaVuSans-31" d="M 794 531 
L 1825 531 
L 1825 4091 
L 703 3866 
L 703 4441 
L 1819 4666 
L 2450 4666 
L 2450 531 
L 3481 531 
L 3481 0 
L 794 0 
L 794 531 
z
" transform="scale(0.015625)"/>
       </defs>
       <use xlink:href="#DejaVuSans-31"/>
       <use xlink:href="#DejaVuSans-30" x="63.623047"/>
       <use xlink:href="#DejaVuSans-30" x="127.246094"/>
      </g>
     </g>
    </g>
    <g id="xtick_7">
     <g id="line2d_7">
      <g>
       <use xlink:href="#me522bc3d09" x="400.4352" y="307.584" style="stroke: #000000; stroke-width: 0.8"/>
      </g>
     </g>
     <g id="text_7">
      <!-- 120 -->
      <g transform="translate(390.89145 322.182437)scale(0.1 -0.1)">
       <use xlink:href="#DejaVuSans-31"/>
       <use xlink:href="#DejaVuSans-32" x="63.623047"/>
       <use xlink:href="#DejaVuSans-30" x="127.246094"/>
      </g>
     </g>
    </g>
    <g id="text_8">
     <!-- $m_{DM}$ [GeV] -->
     <g transform="translate(209.56 335.860562)scale(0.1 -0.1)">
      <defs>
       <path id="DejaVuSans-Oblique-6d" d="M 5747 2113 
L 5338 0 
L 4763 0 
L 5166 2094 
Q 5191 2228 5203 2325 
Q 5216 2422 5216 2491 
Q 5216 2772 5059 2928 
Q 4903 3084 4622 3084 
Q 4203 3084 3875 2770 
Q 3547 2456 3450 1953 
L 3066 0 
L 2491 0 
L 2900 2094 
Q 2925 2209 2937 2307 
Q 2950 2406 2950 2484 
Q 2950 2769 2794 2926 
Q 2638 3084 2363 3084 
Q 1938 3084 1609 2770 
Q 1281 2456 1184 1953 
L 800 0 
L 225 0 
L 909 3500 
L 1484 3500 
L 1375 2956 
Q 1609 3263 1923 3423 
Q 2238 3584 2597 3584 
Q 2978 3584 3223 3384 
Q 3469 3184 3519 2828 
Q 3781 3197 4126 3390 
Q 4472 3584 4856 3584 
Q 5306 3584 5551 3325 
Q 5797 3066 5797 2591 
Q 5797 2488 5784 2364 
Q 5772 2241 5747 2113 
z
" transform="scale(0.015625)"/>
       <path id="DejaVuSans-Oblique-44" d="M 1081 4666 
L 2438 4666 
Q 3519 4666 4070 4208 
Q 4622 3750 4622 2847 
Q 4622 2250 4412 1698 
Q 4203 1147 3834 769 
Q 3463 381 2891 190 
Q 2319 0 1538 0 
L 172 0 
L 1081 4666 
z
M 1613 4147 
L 909 519 
L 1734 519 
Q 2794 519 3375 1128 
Q 3956 1738 3956 2847 
Q 3956 3519 3581 3833 
Q 3206 4147 2406 4147 
L 1613 4147 
z
" transform="scale(0.015625)"/>
       <path id="DejaVuSans-Oblique-4d" d="M 1081 4666 
L 2028 4666 
L 2572 1522 
L 4378 4666 
L 5350 4666 
L 4441 0 
L 3828 0 
L 4622 4091 
L 2791 897 
L 2175 897 
L 1581 4103 
L 788 0 
L 172 0 
L 1081 4666 
z
" transform="scale(0.015625)"/>
       <path id="DejaVuSans-20" transform="scale(0.015625)"/>
       <path id="DejaVuSans-5b" d="M 550 4863 
L 1875 4863 
L 1875 4416 
L 1125 4416 
L 1125 -397 
L 1875 -397 
L 1875 -844 
L 550 -844 
L 550 4863 
z
" transform="scale(0.015625)"/>
       <path id="DejaVuSans-47" d="M 3809 666 
L 3809 1919 
L 2778 1919 
L 2778 2438 
L 4434 2438 
L 4434 434 
Q 4069 175 3628 42 
Q 3188 -91 2688 -91 
Q 1594 -91 976 548 
Q 359 1188 359 2328 
Q 359 3472 976 4111 
Q 1594 4750 2688 4750 
Q 3144 4750 3555 4637 
Q 3966 4525 4313 4306 
L 4313 3634 
Q 3963 3931 3569 4081 
Q 3175 4231 2741 4231 
Q 1884 4231 1454 3753 
Q 1025 3275 1025 2328 
Q 1025 1384 1454 906 
Q 1884 428 2741 428 
Q 3075 428 3337 486 
Q 3600 544 3809 666 
z
" transform="scale(0.015625)"/>
       <path id="DejaVuSans-65" d="M 3597 1894 
L 3597 1613 
L 953 1613 
Q 991 1019 1311 708 
Q 1631 397 2203 397 
Q 2534 397 2845 478 
Q 3156 559 3463 722 
L 3463 178 
Q 3153 47 2828 -22 
Q 2503 -91 2169 -91 
Q 1331 -91 842 396 
Q 353 884 353 1716 
Q 353 2575 817 3079 
Q 1281 3584 2069 3584 
Q 2775 3584 3186 3129 
Q 3597 2675 3597 1894 
z
M 3022 2063 
Q 3016 2534 2758 2815 
Q 2500 3097 2075 3097 
Q 1594 3097 1305 2825 
Q 1016 2553 972 2059 
L 3022 2063 
z
" transform="scale(0.015625)"/>
       <path id="DejaVuSans-56" d="M 1831 0 
L 50 4666 
L 709 4666 
L 2188 738 
L 3669 4666 
L 4325 4666 
L 2547 0 
L 1831 0 
z
" transform="scale(0.015625)"/>
       <path id="DejaVuSans-5d" d="M 1947 4863 
L 1947 -844 
L 622 -844 
L 622 -397 
L 1369 -397 
L 1369 4416 
L 622 4416 
L 622 4863 
L 1947 4863 
z
" transform="scale(0.015625)"/>
      </defs>
      <use xlink:href="#DejaVuSans-Oblique-6d" transform="translate(0 0.015625)"/>
      <use xlink:href="#DejaVuSans-Oblique-44" transform="translate(97.412109 -16.390625)scale(0.7)"/>
      <use xlink:href="#DejaVuSans-Oblique-4d" transform="translate(151.313477 -16.390625)scale(0.7)"/>
      <use xlink:href="#DejaVuSans-20" transform="translate(214.443359 0.015625)"/>
      <use xlink:href="#DejaVuSans-5b" transform="translate(246.230469 0.015625)"/>
      <use xlink:href="#DejaVuSans-47" transform="translate(285.244141 0.015625)"/>
      <use xlink:href="#DejaVuSans-65" transform="translate(362.734375 0.015625)"/>
      <use xlink:href="#DejaVuSans-56" transform="translate(424.257812 0.015625)"/>
      <use xlink:href="#DejaVuSans-5d" transform="translate(492.666016 0.015625)"/>
     </g>
    </g>
   </g>
   <g id="matplotlib.axis_2">
    <g id="ytick_1">
     <g id="line2d_8">
      <defs>
       <path id="m5cfc952ee4" d="M 0 0 
L -3.5 0 
" style="stroke: #000000; stroke-width: 0.8"/>
      </defs>
      <g>
       <use xlink:href="#m5cfc952ee4" x="57.6" y="307.584" style="stroke: #000000; stroke-width: 0.8"/>
      </g>
     </g>
     <g id="text_9">
      <!-- −4 -->
      <g transform="translate(35.857813 311.383219)scale(0.1 -0.1)">
       <defs>
        <path id="DejaVuSans-2212" d="M 678 2272 
L 4684 2272 
L 4684 1741 
L 678 1741 
L 678 2272 
z
" transform="scale(0.015625)"/>
       </defs>
       <use xlink:href="#DejaVuSans-2212"/>
       <use xlink:href="#DejaVuSans-34" x="83.789062"/>
      </g>
     </g>
    </g>
    <g id="ytick_2">
     <g id="line2d_9">
      <g>
       <use xlink:href="#m5cfc952ee4" x="57.6" y="254.3616" style="stroke: #000000; stroke-width: 0.8"/>
      </g>
     </g>
     <g id="text_10">
      <!-- −3 -->
      <g transform="translate(35.857813 258.160819)scale(0.1 -0.1)">
       <defs>
        <path id="DejaVuSans-33" d="M 2597 2516 
Q 3050 2419 3304 2112 
Q 3559 1806 3559 1356 
Q 3559 666 3084 287 
Q 2609 -91 1734 -91 
Q 1441 -91 1130 -33 
Q 819 25 488 141 
L 488 750 
Q 750 597 1062 519 
Q 1375 441 1716 441 
Q 2309 441 2620 675 
Q 2931 909 2931 1356 
Q 2931 1769 2642 2001 
Q 2353 2234 1838 2234 
L 1294 2234 
L 1294 2753 
L 1863 2753 
Q 2328 2753 2575 2939 
Q 2822 3125 2822 3475 
Q 2822 3834 2567 4026 
Q 2313 4219 1838 4219 
Q 1578 4219 1281 4162 
Q 984 4106 628 3988 
L 628 4550 
Q 988 4650 1302 4700 
Q 1616 4750 1894 4750 
Q 2613 4750 3031 4423 
Q 3450 4097 3450 3541 
Q 3450 3153 3228 2886 
Q 3006 2619 2597 2516 
z
" transform="scale(0.015625)"/>
       </defs>
       <use xlink:href="#DejaVuSans-2212"/>
       <use xlink:href="#DejaVuSans-33" x="83.789062"/>
      </g>
     </g>
    </g>
    <g id="ytick_3">
     <g id="line2d_10">
      <g>
       <use xlink:href="#m5cfc952ee4" x="57.6" y="201.1392" style="stroke: #000000; stroke-width: 0.8"/>
      </g>
     </g>
     <g id="text_11">
      <!-- −2 -->
      <g transform="translate(35.857813 204.938419)scale(0.1 -0.1)">
       <use xlink:href="#DejaVuSans-2212"/>
       <use xlink:href="#DejaVuSans-32" x="83.789062"/>
      </g>
     </g>
    </g>
    <g id="ytick_4">
     <g id="line2d_11">
      <g>
       <use xlink:href="#m5cfc952ee4" x="57.6" y="147.9168" style="stroke: #000000; stroke-width: 0.8"/>
      </g>
     </g>
     <g id="text_12">
      <!-- −1 -->
      <g transform="translate(35.857813 151.716019)scale(0.1 -0.1)">
       <use xlink:href="#DejaVuSans-2212"/>
       <use xlink:href="#DejaVuSans-31" x="83.789062"/>
      </g>
     </g>
    </g>
    <g id="ytick_5">
     <g id="line2d_12">
      <g>
       <use xlink:href="#m5cfc952ee4" x="57.6" y="94.6944" style="stroke: #000000; stroke-width: 0.8"/>
      </g>
     </g>
     <g id="text_13">
      <!-- 0 -->
      <g transform="translate(44.2375 98.493619)scale(0.1 -0.1)">
       <use xlink:href="#DejaVuSans-30"/>
      </g>
     </g>
    </g>
    <g id="ytick_6">
     <g id="line2d_13">
      <g>
       <use xlink:href="#m5cfc952ee4" x="57.6" y="41.472" style="stroke: #000000; stroke-width: 0.8"/>
      </g>
     </g>
     <g id="text_14">
      <!-- 1 -->
      <g transform="translate(44.2375 45.271219)scale(0.1 -0.1)">
       <use xlink:href="#DejaVuSans-31"/>
      </g>
     </g>
    </g>
    <g id="text_15">
     <!-- $\log(\lambda)$ -->
     <g transform="translate(29.757812 189.028)rotate(-90)scale(0.1 -0.1)">
      <defs>
       <path id="DejaVuSans-6c" d="M 603 4863 
L 1178 4863 
L 1178 0 
L 603 0 
L 603 4863 
z
" transform="scale(0.015625)"/>
       <path id="DejaVuSans-6f" d="M 1959 3097 
Q 1497 3097 1228 2736 
Q 959 2375 959 1747 
Q 959 1119 1226 758 
Q 1494 397 1959 397 
Q 2419 397 2687 759 
Q 2956 1122 2956 1747 
Q 2956 2369 2687 2733 
Q 2419 3097 1959 3097 
z
M 1959 3584 
Q 2709 3584 3137 3096 
Q 3566 2609 3566 1747 
Q 3566 888 3137 398 
Q 2709 -91 1959 -91 
Q 1206 -91 779 398 
Q 353 888 353 1747 
Q 353 2609 779 3096 
Q 1206 3584 1959 3584 
z
" transform="scale(0.015625)"/>
       <path id="DejaVuSans-67" d="M 2906 1791 
Q 2906 2416 2648 2759 
Q 2391 3103 1925 3103 
Q 1463 3103 1205 2759 
Q 947 2416 947 1791 
Q 947 1169 1205 825 
Q 1463 481 1925 481 
Q 2391 481 2648 825 
Q 2906 1169 2906 1791 
z
M 3481 434 
Q 3481 -459 3084 -895 
Q 2688 -1331 1869 -1331 
Q 1566 -1331 1297 -1286 
Q 1028 -1241 775 -1147 
L 775 -588 
Q 1028 -725 1275 -790 
Q 1522 -856 1778 -856 
Q 2344 -856 2625 -561 
Q 2906 -266 2906 331 
L 2906 616 
Q 2728 306 2450 153 
Q 2172 0 1784 0 
Q 1141 0 747 490 
Q 353 981 353 1791 
Q 353 2603 747 3093 
Q 1141 3584 1784 3584 
Q 2172 3584 2450 3431 
Q 2728 3278 2906 2969 
L 2906 3500 
L 3481 3500 
L 3481 434 
z
" transform="scale(0.015625)"/>
       <path id="DejaVuSans-28" d="M 1984 4856 
Q 1566 4138 1362 3434 
Q 1159 2731 1159 2009 
Q 1159 1288 1364 580 
Q 1569 -128 1984 -844 
L 1484 -844 
Q 1016 -109 783 600 
Q 550 1309 550 2009 
Q 550 2706 781 3412 
Q 1013 4119 1484 4856 
L 1984 4856 
z
" transform="scale(0.015625)"/>
       <path id="DejaVuSans-Oblique-3bb" d="M 2350 4316 
L 3125 0 
L 2516 0 
L 2038 2588 
L 328 0 
L -281 0 
L 1903 3356 
L 1794 3975 
Q 1725 4369 1391 4369 
L 1091 4369 
L 1184 4863 
L 1550 4856 
Q 2253 4847 2350 4316 
z
" transform="scale(0.015625)"/>
       <path id="DejaVuSans-29" d="M 513 4856 
L 1013 4856 
Q 1481 4119 1714 3412 
Q 1947 2706 1947 2009 
Q 1947 1309 1714 600 
Q 1481 -109 1013 -844 
L 513 -844 
Q 928 -128 1133 580 
Q 1338 1288 1338 2009 
Q 1338 2731 1133 3434 
Q 928 4138 513 4856 
z
" transform="scale(0.015625)"/>
      </defs>
      <use xlink:href="#DejaVuSans-6c" transform="translate(0 0.015625)"/>
      <use xlink:href="#DejaVuSans-6f" transform="translate(27.783203 0.015625)"/>
      <use xlink:href="#DejaVuSans-67" transform="translate(88.964844 0.015625)"/>
      <use xlink:href="#DejaVuSans-28" transform="translate(152.441406 0.015625)"/>
      <use xlink:href="#DejaVuSans-Oblique-3bb" transform="translate(191.455078 0.015625)"/>
      <use xlink:href="#DejaVuSans-29" transform="translate(250.634766 0.015625)"/>
     </g>
    </g>
   </g>
   <g id="PathCollection_5">
    <path d="M 62.508083 307.584 
L 63.464657 299.52 
L 65.965054 283.392 
L 66.982181 278.016 
L 69.482246 267.264 
L 70.937025 261.888 
L 74.432094 251.136 
L 77.64156 243.072 
L 81.468868 235.008 
L 86.033939 226.944 
L 89.560436 221.54715 
L 93.479184 216.192 
L 97.899914 210.816 
L 104.220393 204.131931 
L 106.052887 202.331753 
L 111.550371 197.344195 
L 118.152943 192 
L 126.210327 186.249267 
L 134.013315 181.248 
L 144.535273 175.313089 
L 154.02542 170.496 
L 166.525207 164.875704 
L 179.352669 159.717351 
L 195.84512 153.867325 
L 211.138136 148.992 
L 232.495011 143.000282 
L 236.16 142.051139 
L 236.16 142.051139 
" clip-path="url(#pc6a7c7d40d)" style="fill: none; stroke: #440154; stroke-width: 1.5"/>
   </g>
   <g id="patch_3">
    <path d="M 57.6 307.584 
L 57.6 41.472 
" style="fill: none; stroke: #000000; stroke-width: 0.8; stroke-linejoin: miter; stroke-linecap: square"/>
   </g>
   <g id="patch_4">
    <path d="M 414.72 307.584 
L 414.72 41.472 
" style="fill: none; stroke: #000000; stroke-width: 0.8; stroke-linejoin: miter; stroke-linecap: square"/>
   </g>
   <g id="patch_5">
    <path d="M 57.6 307.584 
L 414.72 307.584 
" style="fill: none; stroke: #000000; stroke-width: 0.8; stroke-linejoin: miter; stroke-linecap: square"/>
   </g>
   <g id="patch_6">
    <path d="M 57.6 41.472 
L 414.72 41.472 
" style="fill: none; stroke: #000000; stroke-width: 0.8; stroke-linejoin: miter; stroke-linecap: square"/>
   </g>
   <g id="legend_1">
    <g id="patch_7">
     <path d="M 335.454375 93.506375 
L 407.72 93.506375 
Q 409.72 93.506375 409.72 91.506375 
L 409.72 48.472 
Q 409.72 46.472 407.72 46.472 
L 335.454375 46.472 
Q 333.454375 46.472 333.454375 48.472 
L 333.454375 91.506375 
Q 333.454375 93.506375 335.454375 93.506375 
z
" style="fill: #ffffff; opacity: 0.8; stroke: #cccccc; stroke-linejoin: miter"/>
    </g>
    <g id="patch_8">
     <path d="M 337.454375 58.070438 
L 357.454375 58.070438 
L 357.454375 51.070438 
L 337.454375 51.070438 
z
" style="fill: #b0c4de; stroke: #b0c4de; stroke-linejoin: miter"/>
    </g>
    <g id="text_16">
     <!-- Vektor -->
     <g transform="translate(365.454375 58.070438)scale(0.1 -0.1)">
      <defs>
       <path id="DejaVuSans-6b" d="M 581 4863 
L 1159 4863 
L 1159 1991 
L 2875 3500 
L 3609 3500 
L 1753 1863 
L 3688 0 
L 2938 0 
L 1159 1709 
L 1159 0 
L 581 0 
L 581 4863 
z
" transform="scale(0.015625)"/>
       <path id="DejaVuSans-74" d="M 1172 4494 
L 1172 3500 
L 2356 3500 
L 2356 3053 
L 1172 3053 
L 1172 1153 
Q 1172 725 1289 603 
Q 1406 481 1766 481 
L 2356 481 
L 2356 0 
L 1766 0 
Q 1100 0 847 248 
Q 594 497 594 1153 
L 594 3053 
L 172 3053 
L 172 3500 
L 594 3500 
L 594 4494 
L 1172 4494 
z
" transform="scale(0.015625)"/>
       <path id="DejaVuSans-72" d="M 2631 2963 
Q 2534 3019 2420 3045 
Q 2306 3072 2169 3072 
Q 1681 3072 1420 2755 
Q 1159 2438 1159 1844 
L 1159 0 
L 581 0 
L 581 3500 
L 1159 3500 
L 1159 2956 
Q 1341 3275 1631 3429 
Q 1922 3584 2338 3584 
Q 2397 3584 2469 3576 
Q 2541 3569 2628 3553 
L 2631 2963 
z
" transform="scale(0.015625)"/>
      </defs>
      <use xlink:href="#DejaVuSans-56"/>
      <use xlink:href="#DejaVuSans-65" x="60.658203"/>
      <use xlink:href="#DejaVuSans-6b" x="122.181641"/>
      <use xlink:href="#DejaVuSans-74" x="180.091797"/>
      <use xlink:href="#DejaVuSans-6f" x="219.300781"/>
      <use xlink:href="#DejaVuSans-72" x="280.482422"/>
     </g>
    </g>
    <g id="patch_9">
     <path d="M 337.454375 72.748563 
L 357.454375 72.748563 
L 357.454375 65.748563 
L 337.454375 65.748563 
z
" style="fill: #f08080; stroke: #f08080; stroke-linejoin: miter"/>
    </g>
    <g id="text_17">
     <!-- Skalär -->
     <g transform="translate(365.454375 72.748563)scale(0.1 -0.1)">
      <defs>
       <path id="DejaVuSans-53" d="M 3425 4513 
L 3425 3897 
Q 3066 4069 2747 4153 
Q 2428 4238 2131 4238 
Q 1616 4238 1336 4038 
Q 1056 3838 1056 3469 
Q 1056 3159 1242 3001 
Q 1428 2844 1947 2747 
L 2328 2669 
Q 3034 2534 3370 2195 
Q 3706 1856 3706 1288 
Q 3706 609 3251 259 
Q 2797 -91 1919 -91 
Q 1588 -91 1214 -16 
Q 841 59 441 206 
L 441 856 
Q 825 641 1194 531 
Q 1563 422 1919 422 
Q 2459 422 2753 634 
Q 3047 847 3047 1241 
Q 3047 1584 2836 1778 
Q 2625 1972 2144 2069 
L 1759 2144 
Q 1053 2284 737 2584 
Q 422 2884 422 3419 
Q 422 4038 858 4394 
Q 1294 4750 2059 4750 
Q 2388 4750 2728 4690 
Q 3069 4631 3425 4513 
z
" transform="scale(0.015625)"/>
       <path id="DejaVuSans-61" d="M 2194 1759 
Q 1497 1759 1228 1600 
Q 959 1441 959 1056 
Q 959 750 1161 570 
Q 1363 391 1709 391 
Q 2188 391 2477 730 
Q 2766 1069 2766 1631 
L 2766 1759 
L 2194 1759 
z
M 3341 1997 
L 3341 0 
L 2766 0 
L 2766 531 
Q 2569 213 2275 61 
Q 1981 -91 1556 -91 
Q 1019 -91 701 211 
Q 384 513 384 1019 
Q 384 1609 779 1909 
Q 1175 2209 1959 2209 
L 2766 2209 
L 2766 2266 
Q 2766 2663 2505 2880 
Q 2244 3097 1772 3097 
Q 1472 3097 1187 3025 
Q 903 2953 641 2809 
L 641 3341 
Q 956 3463 1253 3523 
Q 1550 3584 1831 3584 
Q 2591 3584 2966 3190 
Q 3341 2797 3341 1997 
z
" transform="scale(0.015625)"/>
       <path id="DejaVuSans-e4" d="M 2194 1759 
Q 1497 1759 1228 1600 
Q 959 1441 959 1056 
Q 959 750 1161 570 
Q 1363 391 1709 391 
Q 2188 391 2477 730 
Q 2766 1069 2766 1631 
L 2766 1759 
L 2194 1759 
z
M 3341 1997 
L 3341 0 
L 2766 0 
L 2766 531 
Q 2569 213 2275 61 
Q 1981 -91 1556 -91 
Q 1019 -91 701 211 
Q 384 513 384 1019 
Q 384 1609 779 1909 
Q 1175 2209 1959 2209 
L 2766 2209 
L 2766 2266 
Q 2766 2663 2505 2880 
Q 2244 3097 1772 3097 
Q 1472 3097 1187 3025 
Q 903 2953 641 2809 
L 641 3341 
Q 956 3463 1253 3523 
Q 1550 3584 1831 3584 
Q 2591 3584 2966 3190 
Q 3341 2797 3341 1997 
z
M 2150 4850 
L 2784 4850 
L 2784 4219 
L 2150 4219 
L 2150 4850 
z
M 928 4850 
L 1562 4850 
L 1562 4219 
L 928 4219 
L 928 4850 
z
" transform="scale(0.015625)"/>
      </defs>
      <use xlink:href="#DejaVuSans-53"/>
      <use xlink:href="#DejaVuSans-6b" x="63.476562"/>
      <use xlink:href="#DejaVuSans-61" x="119.636719"/>
      <use xlink:href="#DejaVuSans-6c" x="180.916016"/>
      <use xlink:href="#DejaVuSans-e4" x="208.699219"/>
      <use xlink:href="#DejaVuSans-72" x="269.978516"/>
     </g>
    </g>
    <g id="patch_10">
     <path d="M 337.454375 87.426688 
L 357.454375 87.426688 
L 357.454375 80.426688 
L 337.454375 80.426688 
z
" style="fill: #90ee90; stroke: #90ee90; stroke-linejoin: miter"/>
    </g>
    <g id="text_18">
     <!-- Fermion -->
     <g transform="translate(365.454375 87.426688)scale(0.1 -0.1)">
      <defs>
       <path id="DejaVuSans-46" d="M 628 4666 
L 3309 4666 
L 3309 4134 
L 1259 4134 
L 1259 2759 
L 3109 2759 
L 3109 2228 
L 1259 2228 
L 1259 0 
L 628 0 
L 628 4666 
z
" transform="scale(0.015625)"/>
       <path id="DejaVuSans-6d" d="M 3328 2828 
Q 3544 3216 3844 3400 
Q 4144 3584 4550 3584 
Q 5097 3584 5394 3201 
Q 5691 2819 5691 2113 
L 5691 0 
L 5113 0 
L 5113 2094 
Q 5113 2597 4934 2840 
Q 4756 3084 4391 3084 
Q 3944 3084 3684 2787 
Q 3425 2491 3425 1978 
L 3425 0 
L 2847 0 
L 2847 2094 
Q 2847 2600 2669 2842 
Q 2491 3084 2119 3084 
Q 1678 3084 1418 2786 
Q 1159 2488 1159 1978 
L 1159 0 
L 581 0 
L 581 3500 
L 1159 3500 
L 1159 2956 
Q 1356 3278 1631 3431 
Q 1906 3584 2284 3584 
Q 2666 3584 2933 3390 
Q 3200 3197 3328 2828 
z
" transform="scale(0.015625)"/>
       <path id="DejaVuSans-69" d="M 603 3500 
L 1178 3500 
L 1178 0 
L 603 0 
L 603 3500 
z
M 603 4863 
L 1178 4863 
L 1178 4134 
L 603 4134 
L 603 4863 
z
" transform="scale(0.015625)"/>
       <path id="DejaVuSans-6e" d="M 3513 2113 
L 3513 0 
L 2938 0 
L 2938 2094 
Q 2938 2591 2744 2837 
Q 2550 3084 2163 3084 
Q 1697 3084 1428 2787 
Q 1159 2491 1159 1978 
L 1159 0 
L 581 0 
L 581 3500 
L 1159 3500 
L 1159 2956 
Q 1366 3272 1645 3428 
Q 1925 3584 2291 3584 
Q 2894 3584 3203 3211 
Q 3513 2838 3513 2113 
z
" transform="scale(0.015625)"/>
      </defs>
      <use xlink:href="#DejaVuSans-46"/>
      <use xlink:href="#DejaVuSans-65" x="52.019531"/>
      <use xlink:href="#DejaVuSans-72" x="113.542969"/>
      <use xlink:href="#DejaVuSans-6d" x="152.90625"/>
      <use xlink:href="#DejaVuSans-69" x="250.318359"/>
      <use xlink:href="#DejaVuSans-6f" x="278.101562"/>
      <use xlink:href="#DejaVuSans-6e" x="339.283203"/>
     </g>
    </g>
   </g>
  </g>
 </g>
 <defs>
  <clipPath id="pc6a7c7d40d">
   <rect x="57.6" y="41.472" width="357.12" height="266.112"/>
  </clipPath>
 </defs>
 <defs>
  <pattern id="hdd32c033b7" patternUnits="userSpaceOnUse" x="0" y="0" width="72" height="72">
   <rect x="0" y="0" width="73" height="73" fill="#ff4500"/>
   <path d="M -36 36 
L 36 -36 
M -24 48 
L 48 -24 
M -12 60 
L 60 -12 
M 0 72 
L 72 0 
M 12 84 
L 84 12 
M 24 96 
L 96 24 
M 36 108 
L 108 36 
M -36 36 
L 36 108 
M -24 24 
L 48 96 
M -12 12 
L 60 84 
M 0 0 
L 72 72 
M 12 -12 
L 84 60 
M 24 -24 
L 96 48 
M 36 -36 
L 108 36 
" style="fill: #000000; stroke: #000000; stroke-width: 1.0; stroke-linecap: butt; stroke-linejoin: miter"/>
  </pattern>
 </defs>
</svg>
