<?xml version="1.0" encoding="utf-8" standalone="no"?>
<!DOCTYPE svg PUBLIC "-//W3C//DTD SVG 1.1//EN"
  "http://www.w3.org/Graphics/SVG/1.1/DTD/svg11.dtd">
<svg xmlns:xlink="http://www.w3.org/1999/xlink" width="244.8pt" height="244.8pt" viewBox="0 0 244.8 244.8" xmlns="http://www.w3.org/2000/svg" version="1.1">
 <metadata>
  <rdf:RDF xmlns:dc="http://purl.org/dc/elements/1.1/" xmlns:cc="http://creativecommons.org/ns#" xmlns:rdf="http://www.w3.org/1999/02/22-rdf-syntax-ns#">
   <cc:Work>
    <dc:type rdf:resource="http://purl.org/dc/dcmitype/StillImage"/>
    <dc:date>2023-05-03T17:18:32.194659</dc:date>
    <dc:format>image/svg+xml</dc:format>
    <dc:creator>
     <cc:Agent>
      <dc:title>Matplotlib v3.5.1, https://matplotlib.org/</dc:title>
     </cc:Agent>
    </dc:creator>
   </cc:Work>
  </rdf:RDF>
 </metadata>
 <defs>
  <style type="text/css">*{stroke-linejoin: round; stroke-linecap: butt}</style>
 </defs>
 <g id="figure_1">
  <g id="patch_1">
   <path d="M 0 244.8 
L 244.8 244.8 
L 244.8 0 
L 0 0 
z
" style="fill: #ffffff"/>
  </g>
  <g id="axes_1">
   <g id="patch_2">
    <path d="M 72 172.8 
L 216 172.8 
L 216 28.8 
L 72 28.8 
z
" style="fill: #ffffff"/>
   </g>
   <g id="axes_2">
    <g id="patch_3">
     <path d="M 72 28.8 
L 216 28.8 
L 216 28.8 
L 72 28.8 
z
" style="fill: #ffffff"/>
    </g>
    <g id="matplotlib.axis_1">
     <g id="xtick_1">
      <g id="line2d_1">
       <defs>
        <path id="m3db7b08773" d="M 0 0 
L 0 -3.5 
" style="stroke: #000000; stroke-width: 0.8"/>
       </defs>
       <g>
        <use xlink:href="#m3db7b08773" x="85.628873" y="28.8" style="stroke: #000000; stroke-width: 0.8"/>
       </g>
      </g>
      <g id="text_1">
       <!-- 0.85 -->
       <g transform="translate(74.496061 19.720312)scale(0.1 -0.1)">
        <defs>
         <path id="DejaVuSans-30" d="M 2034 4250 
Q 1547 4250 1301 3770 
Q 1056 3291 1056 2328 
Q 1056 1369 1301 889 
Q 1547 409 2034 409 
Q 2525 409 2770 889 
Q 3016 1369 3016 2328 
Q 3016 3291 2770 3770 
Q 2525 4250 2034 4250 
z
M 2034 4750 
Q 2819 4750 3233 4129 
Q 3647 3509 3647 2328 
Q 3647 1150 3233 529 
Q 2819 -91 2034 -91 
Q 1250 -91 836 529 
Q 422 1150 422 2328 
Q 422 3509 836 4129 
Q 1250 4750 2034 4750 
z
" transform="scale(0.015625)"/>
         <path id="DejaVuSans-2e" d="M 684 794 
L 1344 794 
L 1344 0 
L 684 0 
L 684 794 
z
" transform="scale(0.015625)"/>
         <path id="DejaVuSans-38" d="M 2034 2216 
Q 1584 2216 1326 1975 
Q 1069 1734 1069 1313 
Q 1069 891 1326 650 
Q 1584 409 2034 409 
Q 2484 409 2743 651 
Q 3003 894 3003 1313 
Q 3003 1734 2745 1975 
Q 2488 2216 2034 2216 
z
M 1403 2484 
Q 997 2584 770 2862 
Q 544 3141 544 3541 
Q 544 4100 942 4425 
Q 1341 4750 2034 4750 
Q 2731 4750 3128 4425 
Q 3525 4100 3525 3541 
Q 3525 3141 3298 2862 
Q 3072 2584 2669 2484 
Q 3125 2378 3379 2068 
Q 3634 1759 3634 1313 
Q 3634 634 3220 271 
Q 2806 -91 2034 -91 
Q 1263 -91 848 271 
Q 434 634 434 1313 
Q 434 1759 690 2068 
Q 947 2378 1403 2484 
z
M 1172 3481 
Q 1172 3119 1398 2916 
Q 1625 2713 2034 2713 
Q 2441 2713 2670 2916 
Q 2900 3119 2900 3481 
Q 2900 3844 2670 4047 
Q 2441 4250 2034 4250 
Q 1625 4250 1398 4047 
Q 1172 3844 1172 3481 
z
" transform="scale(0.015625)"/>
         <path id="DejaVuSans-35" d="M 691 4666 
L 3169 4666 
L 3169 4134 
L 1269 4134 
L 1269 2991 
Q 1406 3038 1543 3061 
Q 1681 3084 1819 3084 
Q 2600 3084 3056 2656 
Q 3513 2228 3513 1497 
Q 3513 744 3044 326 
Q 2575 -91 1722 -91 
Q 1428 -91 1123 -41 
Q 819 9 494 109 
L 494 744 
Q 775 591 1075 516 
Q 1375 441 1709 441 
Q 2250 441 2565 725 
Q 2881 1009 2881 1497 
Q 2881 1984 2565 2268 
Q 2250 2553 1709 2553 
Q 1456 2553 1204 2497 
Q 953 2441 691 2322 
L 691 4666 
z
" transform="scale(0.015625)"/>
        </defs>
        <use xlink:href="#DejaVuSans-30"/>
        <use xlink:href="#DejaVuSans-2e" x="63.623047"/>
        <use xlink:href="#DejaVuSans-38" x="95.410156"/>
        <use xlink:href="#DejaVuSans-35" x="159.033203"/>
       </g>
      </g>
     </g>
     <g id="xtick_2">
      <g id="line2d_2">
       <g>
        <use xlink:href="#m3db7b08773" x="130.278188" y="28.8" style="stroke: #000000; stroke-width: 0.8"/>
       </g>
      </g>
      <g id="text_2">
       <!-- 0.90 -->
       <g transform="translate(119.145375 19.720312)scale(0.1 -0.1)">
        <defs>
         <path id="DejaVuSans-39" d="M 703 97 
L 703 672 
Q 941 559 1184 500 
Q 1428 441 1663 441 
Q 2288 441 2617 861 
Q 2947 1281 2994 2138 
Q 2813 1869 2534 1725 
Q 2256 1581 1919 1581 
Q 1219 1581 811 2004 
Q 403 2428 403 3163 
Q 403 3881 828 4315 
Q 1253 4750 1959 4750 
Q 2769 4750 3195 4129 
Q 3622 3509 3622 2328 
Q 3622 1225 3098 567 
Q 2575 -91 1691 -91 
Q 1453 -91 1209 -44 
Q 966 3 703 97 
z
M 1959 2075 
Q 2384 2075 2632 2365 
Q 2881 2656 2881 3163 
Q 2881 3666 2632 3958 
Q 2384 4250 1959 4250 
Q 1534 4250 1286 3958 
Q 1038 3666 1038 3163 
Q 1038 2656 1286 2365 
Q 1534 2075 1959 2075 
z
" transform="scale(0.015625)"/>
        </defs>
        <use xlink:href="#DejaVuSans-30"/>
        <use xlink:href="#DejaVuSans-2e" x="63.623047"/>
        <use xlink:href="#DejaVuSans-39" x="95.410156"/>
        <use xlink:href="#DejaVuSans-30" x="159.033203"/>
       </g>
      </g>
     </g>
     <g id="xtick_3">
      <g id="line2d_3">
       <g>
        <use xlink:href="#m3db7b08773" x="173.703534" y="28.8" style="stroke: #000000; stroke-width: 0.8"/>
       </g>
      </g>
      <g id="text_3">
       <!-- 0.95 -->
       <g transform="translate(162.570722 19.720312)scale(0.1 -0.1)">
        <use xlink:href="#DejaVuSans-30"/>
        <use xlink:href="#DejaVuSans-2e" x="63.623047"/>
        <use xlink:href="#DejaVuSans-39" x="95.410156"/>
        <use xlink:href="#DejaVuSans-35" x="159.033203"/>
       </g>
      </g>
     </g>
     <g id="text_4">
      <!-- $1-BR_{osynlig}$ -->
      <g transform="translate(115.2 8.121875)scale(0.1 -0.1)">
       <defs>
        <path id="DejaVuSans-31" d="M 794 531 
L 1825 531 
L 1825 4091 
L 703 3866 
L 703 4441 
L 1819 4666 
L 2450 4666 
L 2450 531 
L 3481 531 
L 3481 0 
L 794 0 
L 794 531 
z
" transform="scale(0.015625)"/>
        <path id="DejaVuSans-2212" d="M 678 2272 
L 4684 2272 
L 4684 1741 
L 678 1741 
L 678 2272 
z
" transform="scale(0.015625)"/>
        <path id="DejaVuSans-Oblique-42" d="M 1081 4666 
L 2694 4666 
Q 3350 4666 3675 4422 
Q 4000 4178 4000 3688 
Q 4000 3238 3720 2911 
Q 3441 2584 2988 2516 
Q 3375 2428 3569 2181 
Q 3763 1934 3763 1522 
Q 3763 819 3242 409 
Q 2722 0 1819 0 
L 172 0 
L 1081 4666 
z
M 1234 2228 
L 903 519 
L 1919 519 
Q 2491 519 2800 781 
Q 3109 1044 3109 1522 
Q 3109 1891 2904 2059 
Q 2700 2228 2247 2228 
L 1234 2228 
z
M 1606 4147 
L 1331 2741 
L 2272 2741 
Q 2775 2741 3058 2959 
Q 3341 3178 3341 3566 
Q 3341 3869 3150 4008 
Q 2959 4147 2541 4147 
L 1606 4147 
z
" transform="scale(0.015625)"/>
        <path id="DejaVuSans-Oblique-52" d="M 1613 4147 
L 1294 2491 
L 2106 2491 
Q 2584 2491 2879 2755 
Q 3175 3019 3175 3444 
Q 3175 3784 2976 3965 
Q 2778 4147 2406 4147 
L 1613 4147 
z
M 2772 2241 
Q 2972 2194 3105 2009 
Q 3238 1825 3413 1275 
L 3809 0 
L 3144 0 
L 2778 1197 
Q 2638 1659 2453 1815 
Q 2269 1972 1888 1972 
L 1191 1972 
L 806 0 
L 172 0 
L 1081 4666 
L 2503 4666 
Q 3150 4666 3495 4373 
Q 3841 4081 3841 3531 
Q 3841 3044 3547 2687 
Q 3253 2331 2772 2241 
z
" transform="scale(0.015625)"/>
        <path id="DejaVuSans-Oblique-6f" d="M 1625 -91 
Q 1009 -91 651 289 
Q 294 669 294 1325 
Q 294 1706 417 2101 
Q 541 2497 738 2766 
Q 1047 3184 1428 3384 
Q 1809 3584 2291 3584 
Q 2888 3584 3255 3212 
Q 3622 2841 3622 2241 
Q 3622 1825 3500 1412 
Q 3378 1000 3181 728 
Q 2875 309 2494 109 
Q 2113 -91 1625 -91 
z
M 891 1344 
Q 891 869 1089 633 
Q 1288 397 1691 397 
Q 2269 397 2648 901 
Q 3028 1406 3028 2181 
Q 3028 2634 2825 2865 
Q 2622 3097 2228 3097 
Q 1903 3097 1650 2945 
Q 1397 2794 1197 2484 
Q 1050 2253 970 1956 
Q 891 1659 891 1344 
z
" transform="scale(0.015625)"/>
        <path id="DejaVuSans-Oblique-73" d="M 3200 3397 
L 3091 2853 
Q 2863 2978 2609 3040 
Q 2356 3103 2088 3103 
Q 1634 3103 1373 2948 
Q 1113 2794 1113 2528 
Q 1113 2219 1719 2053 
Q 1766 2041 1788 2034 
L 1972 1978 
Q 2547 1819 2739 1644 
Q 2931 1469 2931 1166 
Q 2931 609 2489 259 
Q 2047 -91 1331 -91 
Q 1053 -91 747 -37 
Q 441 16 72 128 
L 184 722 
Q 500 559 806 475 
Q 1113 391 1394 391 
Q 1816 391 2080 572 
Q 2344 753 2344 1031 
Q 2344 1331 1650 1516 
L 1591 1531 
L 1394 1581 
Q 956 1697 753 1886 
Q 550 2075 550 2369 
Q 550 2928 970 3256 
Q 1391 3584 2113 3584 
Q 2397 3584 2667 3537 
Q 2938 3491 3200 3397 
z
" transform="scale(0.015625)"/>
        <path id="DejaVuSans-Oblique-79" d="M 1588 -325 
Q 1188 -997 936 -1164 
Q 684 -1331 294 -1331 
L -159 -1331 
L -63 -850 
L 269 -850 
Q 509 -850 678 -719 
Q 847 -588 1056 -206 
L 1234 128 
L 459 3500 
L 1069 3500 
L 1650 819 
L 3256 3500 
L 3859 3500 
L 1588 -325 
z
" transform="scale(0.015625)"/>
        <path id="DejaVuSans-Oblique-6e" d="M 3566 2113 
L 3156 0 
L 2578 0 
L 2988 2091 
Q 3016 2238 3031 2350 
Q 3047 2463 3047 2528 
Q 3047 2791 2881 2937 
Q 2716 3084 2419 3084 
Q 1956 3084 1622 2776 
Q 1288 2469 1184 1941 
L 800 0 
L 225 0 
L 903 3500 
L 1478 3500 
L 1363 2950 
Q 1603 3253 1940 3418 
Q 2278 3584 2650 3584 
Q 3113 3584 3367 3334 
Q 3622 3084 3622 2631 
Q 3622 2519 3608 2391 
Q 3594 2263 3566 2113 
z
" transform="scale(0.015625)"/>
        <path id="DejaVuSans-Oblique-6c" d="M 1172 4863 
L 1747 4863 
L 800 0 
L 225 0 
L 1172 4863 
z
" transform="scale(0.015625)"/>
        <path id="DejaVuSans-Oblique-69" d="M 1172 4863 
L 1747 4863 
L 1606 4134 
L 1031 4134 
L 1172 4863 
z
M 909 3500 
L 1484 3500 
L 800 0 
L 225 0 
L 909 3500 
z
" transform="scale(0.015625)"/>
        <path id="DejaVuSans-Oblique-67" d="M 3816 3500 
L 3219 434 
Q 3047 -456 2561 -893 
Q 2075 -1331 1253 -1331 
Q 950 -1331 690 -1286 
Q 431 -1241 206 -1147 
L 313 -588 
Q 525 -725 762 -790 
Q 1000 -856 1269 -856 
Q 1816 -856 2167 -557 
Q 2519 -259 2631 300 
L 2681 563 
Q 2441 288 2122 144 
Q 1803 0 1434 0 
Q 903 0 598 351 
Q 294 703 294 1319 
Q 294 1803 478 2267 
Q 663 2731 997 3091 
Q 1219 3328 1514 3456 
Q 1809 3584 2131 3584 
Q 2484 3584 2746 3420 
Q 3009 3256 3138 2956 
L 3238 3500 
L 3816 3500 
z
M 2950 2216 
Q 2950 2641 2750 2872 
Q 2550 3103 2181 3103 
Q 1953 3103 1747 3012 
Q 1541 2922 1394 2759 
Q 1156 2491 1023 2127 
Q 891 1763 891 1375 
Q 891 944 1092 712 
Q 1294 481 1672 481 
Q 2219 481 2584 976 
Q 2950 1472 2950 2216 
z
" transform="scale(0.015625)"/>
       </defs>
       <use xlink:href="#DejaVuSans-31" transform="translate(0 0.09375)"/>
       <use xlink:href="#DejaVuSans-2212" transform="translate(83.105469 0.09375)"/>
       <use xlink:href="#DejaVuSans-Oblique-42" transform="translate(186.376953 0.09375)"/>
       <use xlink:href="#DejaVuSans-Oblique-52" transform="translate(254.980469 0.09375)"/>
       <use xlink:href="#DejaVuSans-Oblique-6f" transform="translate(324.462891 -16.3125)scale(0.7)"/>
       <use xlink:href="#DejaVuSans-Oblique-73" transform="translate(367.290039 -16.3125)scale(0.7)"/>
       <use xlink:href="#DejaVuSans-Oblique-79" transform="translate(403.759766 -16.3125)scale(0.7)"/>
       <use xlink:href="#DejaVuSans-Oblique-6e" transform="translate(445.185547 -16.3125)scale(0.7)"/>
       <use xlink:href="#DejaVuSans-Oblique-6c" transform="translate(489.550781 -16.3125)scale(0.7)"/>
       <use xlink:href="#DejaVuSans-Oblique-69" transform="translate(508.999023 -16.3125)scale(0.7)"/>
       <use xlink:href="#DejaVuSans-Oblique-67" transform="translate(528.447266 -16.3125)scale(0.7)"/>
      </g>
     </g>
    </g>
    <g id="matplotlib.axis_2"/>
    <g id="patch_4">
     <path d="M 72 28.8 
L 216 28.8 
" style="fill: none; stroke: #000000; stroke-width: 0.8; stroke-linejoin: miter; stroke-linecap: square"/>
    </g>
   </g>
   <g id="matplotlib.axis_3">
    <g id="xtick_4">
     <g id="line2d_4">
      <defs>
       <path id="m03ba338481" d="M 0 0 
L 0 3.5 
" style="stroke: #000000; stroke-width: 0.8"/>
      </defs>
      <g>
       <use xlink:href="#m03ba338481" x="82.364062" y="172.8" style="stroke: #000000; stroke-width: 0.8"/>
      </g>
     </g>
     <g id="text_5">
      <!-- 0.92 -->
      <g transform="translate(76.443147 200.917081)rotate(-45)scale(0.1 -0.1)">
       <defs>
        <path id="DejaVuSans-32" d="M 1228 531 
L 3431 531 
L 3431 0 
L 469 0 
L 469 531 
Q 828 903 1448 1529 
Q 2069 2156 2228 2338 
Q 2531 2678 2651 2914 
Q 2772 3150 2772 3378 
Q 2772 3750 2511 3984 
Q 2250 4219 1831 4219 
Q 1534 4219 1204 4116 
Q 875 4013 500 3803 
L 500 4441 
Q 881 4594 1212 4672 
Q 1544 4750 1819 4750 
Q 2544 4750 2975 4387 
Q 3406 4025 3406 3419 
Q 3406 3131 3298 2873 
Q 3191 2616 2906 2266 
Q 2828 2175 2409 1742 
Q 1991 1309 1228 531 
z
" transform="scale(0.015625)"/>
       </defs>
       <use xlink:href="#DejaVuSans-30"/>
       <use xlink:href="#DejaVuSans-2e" x="63.623047"/>
       <use xlink:href="#DejaVuSans-39" x="95.410156"/>
       <use xlink:href="#DejaVuSans-32" x="159.033203"/>
      </g>
     </g>
    </g>
    <g id="xtick_5">
     <g id="line2d_5">
      <g>
       <use xlink:href="#m03ba338481" x="115.773139" y="172.8" style="stroke: #000000; stroke-width: 0.8"/>
      </g>
     </g>
     <g id="text_6">
      <!-- 0.94 -->
      <g transform="translate(109.852225 200.917081)rotate(-45)scale(0.1 -0.1)">
       <defs>
        <path id="DejaVuSans-34" d="M 2419 4116 
L 825 1625 
L 2419 1625 
L 2419 4116 
z
M 2253 4666 
L 3047 4666 
L 3047 1625 
L 3713 1625 
L 3713 1100 
L 3047 1100 
L 3047 0 
L 2419 0 
L 2419 1100 
L 313 1100 
L 313 1709 
L 2253 4666 
z
" transform="scale(0.015625)"/>
       </defs>
       <use xlink:href="#DejaVuSans-30"/>
       <use xlink:href="#DejaVuSans-2e" x="63.623047"/>
       <use xlink:href="#DejaVuSans-39" x="95.410156"/>
       <use xlink:href="#DejaVuSans-34" x="159.033203"/>
      </g>
     </g>
    </g>
    <g id="xtick_6">
     <g id="line2d_6">
      <g>
       <use xlink:href="#m03ba338481" x="149.182216" y="172.8" style="stroke: #000000; stroke-width: 0.8"/>
      </g>
     </g>
     <g id="text_7">
      <!-- 0.96 -->
      <g transform="translate(143.261302 200.917081)rotate(-45)scale(0.1 -0.1)">
       <defs>
        <path id="DejaVuSans-36" d="M 2113 2584 
Q 1688 2584 1439 2293 
Q 1191 2003 1191 1497 
Q 1191 994 1439 701 
Q 1688 409 2113 409 
Q 2538 409 2786 701 
Q 3034 994 3034 1497 
Q 3034 2003 2786 2293 
Q 2538 2584 2113 2584 
z
M 3366 4563 
L 3366 3988 
Q 3128 4100 2886 4159 
Q 2644 4219 2406 4219 
Q 1781 4219 1451 3797 
Q 1122 3375 1075 2522 
Q 1259 2794 1537 2939 
Q 1816 3084 2150 3084 
Q 2853 3084 3261 2657 
Q 3669 2231 3669 1497 
Q 3669 778 3244 343 
Q 2819 -91 2113 -91 
Q 1303 -91 875 529 
Q 447 1150 447 2328 
Q 447 3434 972 4092 
Q 1497 4750 2381 4750 
Q 2619 4750 2861 4703 
Q 3103 4656 3366 4563 
z
" transform="scale(0.015625)"/>
       </defs>
       <use xlink:href="#DejaVuSans-30"/>
       <use xlink:href="#DejaVuSans-2e" x="63.623047"/>
       <use xlink:href="#DejaVuSans-39" x="95.410156"/>
       <use xlink:href="#DejaVuSans-36" x="159.033203"/>
      </g>
     </g>
    </g>
    <g id="xtick_7">
     <g id="line2d_7">
      <g>
       <use xlink:href="#m03ba338481" x="182.591293" y="172.8" style="stroke: #000000; stroke-width: 0.8"/>
      </g>
     </g>
     <g id="text_8">
      <!-- 0.98 -->
      <g transform="translate(176.670379 200.917081)rotate(-45)scale(0.1 -0.1)">
       <use xlink:href="#DejaVuSans-30"/>
       <use xlink:href="#DejaVuSans-2e" x="63.623047"/>
       <use xlink:href="#DejaVuSans-39" x="95.410156"/>
       <use xlink:href="#DejaVuSans-38" x="159.033203"/>
      </g>
     </g>
    </g>
    <g id="text_9">
     <!-- $\cos(\theta)$ -->
     <g transform="translate(128.6 223.598437)scale(0.1 -0.1)">
      <defs>
       <path id="DejaVuSans-63" d="M 3122 3366 
L 3122 2828 
Q 2878 2963 2633 3030 
Q 2388 3097 2138 3097 
Q 1578 3097 1268 2742 
Q 959 2388 959 1747 
Q 959 1106 1268 751 
Q 1578 397 2138 397 
Q 2388 397 2633 464 
Q 2878 531 3122 666 
L 3122 134 
Q 2881 22 2623 -34 
Q 2366 -91 2075 -91 
Q 1284 -91 818 406 
Q 353 903 353 1747 
Q 353 2603 823 3093 
Q 1294 3584 2113 3584 
Q 2378 3584 2631 3529 
Q 2884 3475 3122 3366 
z
" transform="scale(0.015625)"/>
       <path id="DejaVuSans-6f" d="M 1959 3097 
Q 1497 3097 1228 2736 
Q 959 2375 959 1747 
Q 959 1119 1226 758 
Q 1494 397 1959 397 
Q 2419 397 2687 759 
Q 2956 1122 2956 1747 
Q 2956 2369 2687 2733 
Q 2419 3097 1959 3097 
z
M 1959 3584 
Q 2709 3584 3137 3096 
Q 3566 2609 3566 1747 
Q 3566 888 3137 398 
Q 2709 -91 1959 -91 
Q 1206 -91 779 398 
Q 353 888 353 1747 
Q 353 2609 779 3096 
Q 1206 3584 1959 3584 
z
" transform="scale(0.015625)"/>
       <path id="DejaVuSans-73" d="M 2834 3397 
L 2834 2853 
Q 2591 2978 2328 3040 
Q 2066 3103 1784 3103 
Q 1356 3103 1142 2972 
Q 928 2841 928 2578 
Q 928 2378 1081 2264 
Q 1234 2150 1697 2047 
L 1894 2003 
Q 2506 1872 2764 1633 
Q 3022 1394 3022 966 
Q 3022 478 2636 193 
Q 2250 -91 1575 -91 
Q 1294 -91 989 -36 
Q 684 19 347 128 
L 347 722 
Q 666 556 975 473 
Q 1284 391 1588 391 
Q 1994 391 2212 530 
Q 2431 669 2431 922 
Q 2431 1156 2273 1281 
Q 2116 1406 1581 1522 
L 1381 1569 
Q 847 1681 609 1914 
Q 372 2147 372 2553 
Q 372 3047 722 3315 
Q 1072 3584 1716 3584 
Q 2034 3584 2315 3537 
Q 2597 3491 2834 3397 
z
" transform="scale(0.015625)"/>
       <path id="DejaVuSans-28" d="M 1984 4856 
Q 1566 4138 1362 3434 
Q 1159 2731 1159 2009 
Q 1159 1288 1364 580 
Q 1569 -128 1984 -844 
L 1484 -844 
Q 1016 -109 783 600 
Q 550 1309 550 2009 
Q 550 2706 781 3412 
Q 1013 4119 1484 4856 
L 1984 4856 
z
" transform="scale(0.015625)"/>
       <path id="DejaVuSans-Oblique-3b8" d="M 2913 2219 
L 925 2219 
Q 791 1284 928 888 
Q 1100 400 1566 400 
Q 2034 400 2391 891 
Q 2703 1322 2913 2219 
z
M 3009 2750 
Q 3094 3638 2984 3950 
Q 2813 4444 2353 4444 
Q 1875 4444 1525 3956 
Q 1250 3563 1034 2750 
L 3009 2750 
z
M 2444 4913 
Q 3194 4913 3494 4250 
Q 3794 3591 3566 2422 
Q 3341 1256 2781 594 
Q 2225 -72 1475 -72 
Q 722 -72 425 594 
Q 128 1256 353 2422 
Q 581 3591 1134 4250 
Q 1691 4913 2444 4913 
z
" transform="scale(0.015625)"/>
       <path id="DejaVuSans-29" d="M 513 4856 
L 1013 4856 
Q 1481 4119 1714 3412 
Q 1947 2706 1947 2009 
Q 1947 1309 1714 600 
Q 1481 -109 1013 -844 
L 513 -844 
Q 928 -128 1133 580 
Q 1338 1288 1338 2009 
Q 1338 2731 1133 3434 
Q 928 4138 513 4856 
z
" transform="scale(0.015625)"/>
      </defs>
      <use xlink:href="#DejaVuSans-63" transform="translate(0 0.234375)"/>
      <use xlink:href="#DejaVuSans-6f" transform="translate(54.980469 0.234375)"/>
      <use xlink:href="#DejaVuSans-73" transform="translate(116.162109 0.234375)"/>
      <use xlink:href="#DejaVuSans-28" transform="translate(168.261719 0.234375)"/>
      <use xlink:href="#DejaVuSans-Oblique-3b8" transform="translate(207.275391 0.234375)"/>
      <use xlink:href="#DejaVuSans-29" transform="translate(268.457031 0.234375)"/>
     </g>
    </g>
   </g>
   <g id="matplotlib.axis_4"/>
   <g id="patch_5">
    <path d="M 72 172.8 
L 72 172.595455 
L 74.88 172.595455 
L 74.88 172.8 
L 77.76 172.8 
L 77.76 172.8 
L 80.64 172.8 
L 80.64 172.8 
L 83.52 172.8 
L 83.52 172.8 
L 86.4 172.8 
L 86.4 172.595455 
L 89.28 172.595455 
L 89.28 171.981818 
L 92.16 171.981818 
L 92.16 172.595455 
L 95.04 172.595455 
L 95.04 172.186364 
L 97.92 172.186364 
L 97.92 172.390909 
L 100.8 172.390909 
L 100.8 172.390909 
L 103.68 172.390909 
L 103.68 171.777273 
L 106.56 171.777273 
L 106.56 171.368182 
L 109.44 171.368182 
L 109.44 170.959091 
L 112.32 170.959091 
L 112.32 170.55 
L 115.2 170.55 
L 115.2 169.936364 
L 118.08 169.936364 
L 118.08 169.527273 
L 120.96 169.527273 
L 120.96 169.322727 
L 123.84 169.322727 
L 123.84 167.890909 
L 126.72 167.890909 
L 126.72 167.686364 
L 129.6 167.686364 
L 129.6 166.459091 
L 132.48 166.459091 
L 132.48 162.777273 
L 135.36 162.777273 
L 135.36 164.004545 
L 138.24 164.004545 
L 138.24 159.095455 
L 141.12 159.095455 
L 141.12 160.731818 
L 144 160.731818 
L 144 156.231818 
L 146.88 156.231818 
L 146.88 152.140909 
L 149.76 152.140909 
L 149.76 153.981818 
L 152.64 153.981818 
L 152.64 145.390909 
L 155.52 145.390909 
L 155.52 141.913636 
L 158.4 141.913636 
L 158.4 137.004545 
L 161.28 137.004545 
L 161.28 138.640909 
L 164.16 138.640909 
L 164.16 128.413636 
L 167.04 128.413636 
L 167.04 124.936364 
L 169.92 124.936364 
L 169.92 121.459091 
L 172.8 121.459091 
L 172.8 110.822727 
L 175.68 110.822727 
L 175.68 107.345455 
L 178.56 107.345455 
L 178.56 103.663636 
L 181.44 103.663636 
L 181.44 104.890909 
L 184.32 104.890909 
L 184.32 92.413636 
L 187.2 92.413636 
L 187.2 90.368182 
L 190.08 90.368182 
L 190.08 83.209091 
L 192.96 83.209091 
L 192.96 69.709091 
L 195.84 69.709091 
L 195.84 70.936364 
L 198.72 70.936364 
L 198.72 64.186364 
L 201.6 64.186364 
L 201.6 52.322727 
L 204.48 52.322727 
L 204.48 61.731818 
L 207.36 61.731818 
L 207.36 41.890909 
L 210.24 41.890909 
L 210.24 56.413636 
L 213.12 56.413636 
L 213.12 49.05 
L 216 49.05 
L 216 172.8 
" clip-path="url(#pc8bde4825d)" style="fill: none; stroke: #000000; stroke-linejoin: miter"/>
   </g>
   <g id="line2d_8">
    <path d="M 146.032535 172.8 
L 146.032535 28.8 
" clip-path="url(#pc8bde4825d)" style="fill: none; stroke-dasharray: 5.55,2.4; stroke-dashoffset: 0; stroke: #000000; stroke-width: 1.5"/>
   </g>
   <g id="line2d_9">
    <path d="M 216.00037 172.8 
L 216.00037 28.8 
" clip-path="url(#pc8bde4825d)" style="fill: none; stroke: #4682b4; stroke-width: 1.5; stroke-linecap: square"/>
   </g>
   <g id="patch_6">
    <path d="M 72 172.8 
L 72 28.8 
" style="fill: none; stroke: #000000; stroke-width: 0.8; stroke-linejoin: miter; stroke-linecap: square"/>
   </g>
   <g id="patch_7">
    <path d="M 216 172.8 
L 216 28.8 
" style="fill: none; stroke: #000000; stroke-width: 0.8; stroke-linejoin: miter; stroke-linecap: square"/>
   </g>
   <g id="patch_8">
    <path d="M 72 172.8 
L 216 172.8 
" style="fill: none; stroke: #000000; stroke-width: 0.8; stroke-linejoin: miter; stroke-linecap: square"/>
   </g>
   <g id="patch_9">
    <path d="M 72 28.8 
L 216 28.8 
" style="fill: none; stroke: #000000; stroke-width: 0.8; stroke-linejoin: miter; stroke-linecap: square"/>
   </g>
  </g>
 </g>
 <defs>
  <clipPath id="pc8bde4825d">
   <rect x="72" y="28.8" width="144" height="144"/>
  </clipPath>
 </defs>
</svg>
